<svg width="215" height="79" viewBox="0 0 215 79" fill="none" xmlns="http://www.w3.org/2000/svg">
<path d="M0 36.7036V35.9992C0.235313 35.8611 0.770114 35.4966 1.00543 35.2346L15.0172 19.6243L42.3955 19.5996L43.8608 22.4738L29.981 22.5482L21.1425 39.631L38.3488 73.5346L55.5551 39.6097L38.3666 6.49189L32.7619 17.1642L29.5246 17.1076L38.3381 0L48.4851 19.5925L61.6875 19.6314L76.694 36.3532L38.3238 79L0.741591 37.1779C0.449233 36.8523 0.0855682 36.6965 0 36.7036ZM18.7751 37.8788L26.6367 22.5517L16.3471 22.5022L4.86669 35.3656L18.7751 37.8788ZM71.8381 35.3479L60.3291 22.488L50.0396 22.5623L58.0152 37.9885L71.8381 35.3514V35.3479ZM18.5041 40.8699L6.1823 38.7708L31.4071 66.7596L18.5041 40.8663V40.8699ZM45.3832 66.6534L70.5224 38.7779C66.0444 39.3726 62.2437 40.1301 58.14 40.9301L45.3832 66.6569V66.6534Z" fill="white"/>
<path d="M110.596 17.2589L115.331 17.2766L110.047 34.232L105.99 34.2391L102.82 24.5756L99.6685 34.232L95.5755 34.2143L90.2988 17.2377L95.0051 17.1562L97.8395 26.264L100.792 17.2731L104.717 17.2306L107.819 26.2994L110.596 17.2589Z" fill="white"/>
<path d="M155.491 54.2697L153.954 44.2983L149.683 53.445C148.924 53.4945 147.883 53.4308 147.416 53.2255L143.301 44.5001L141.743 54.2273L137.871 54.1919L140.338 37.8772L144.31 37.8418L148.603 47.1619L152.899 37.8843L156.885 37.8524L159.37 54.1954L155.495 54.2697H155.491Z" fill="white"/>
<path d="M101.848 54.575L94.9992 54.5962L94.9707 37.4993L101.998 37.4922C106.818 37.4851 110.519 41.5027 110.508 46.0478C110.498 50.5786 106.815 54.5573 101.845 54.575H101.848ZM99.6199 50.3379C102.558 50.6777 104.201 49.8919 105.232 48.2247C106.262 46.5575 105.952 44.5575 104.804 43.2301C103.528 41.754 101.602 41.4036 99.5308 41.8178L99.6163 50.3415L99.6199 50.3379Z" fill="white"/>
<path d="M98.4602 66.1475C98.4103 68.6324 99.8721 70.4448 101.847 70.8625C104.265 71.3722 106.286 70.2182 106.935 67.6625L111.399 67.7015C111.053 71.8925 107.727 75.0075 103.395 75.2376C98.175 75.5137 93.9322 71.4748 93.8075 66.505C93.6827 61.5352 97.7971 57.33 103.031 57.3973C107.306 57.4539 110.818 60.2857 111.367 64.6962L106.885 64.7387C106.186 62.4273 104.311 61.4432 102.168 61.7052C100.025 61.9671 98.5066 63.6839 98.4567 66.1511L98.4602 66.1475Z" fill="white"/>
<path d="M196.426 54.2069L192.822 54.1609L186.115 44.7133L186.012 54.221L182.197 54.2175L182.193 37.8533L185.723 37.832L192.497 47.3185L192.611 37.8356H196.419L196.426 54.2069Z" fill="white"/>
<path d="M169.626 74.4313C168.435 74.5481 167.062 74.5445 165.978 74.3817L159.34 65.0828L159.197 74.5021L155.396 74.4844V58.1768H158.951L165.647 67.5004L165.814 58.1484L169.619 58.1732L169.626 74.4277V74.4313Z" fill="white"/>
<path d="M207.603 54.1209C204.921 54.3616 202.493 54.2519 200.076 54.174L200.083 37.8204C202.547 37.7992 204.743 37.7638 207.175 37.8664C211.467 38.0434 214.78 41.6964 214.933 45.7317C215.083 49.7564 212.027 53.7209 207.606 54.1209H207.603ZM207.143 50.5776C209.934 50.1069 211.307 47.445 210.868 45.1654C210.255 41.9548 206.957 40.7053 203.955 41.5301L203.987 50.6838C205.046 50.7122 206.112 50.7476 207.139 50.5741L207.143 50.5776Z" fill="white"/>
<path d="M179.954 25.2642C180.193 29.9225 176.828 33.8657 172.225 33.8905L165.108 33.9295L165.098 17.5369L171.858 17.5157C176.225 17.5015 179.723 20.7793 179.951 25.2642H179.954ZM173.64 29.9048C175.544 28.9738 176.004 27.211 175.99 25.604C175.976 23.9969 175.33 22.3049 173.612 21.5156C172.31 20.9174 170.56 20.9811 168.998 21.1085V30.3685C170.553 30.4605 172.317 30.549 173.64 29.9048Z" fill="white"/>
<path d="M168.996 37.6145C173.902 36.6729 178.259 39.9684 179.132 44.4462C180.042 49.1081 176.876 53.5894 172.155 54.4743C167.435 55.3593 163.11 52.4567 162.129 47.9081C161.149 43.3524 163.958 38.5809 169 37.6145H168.996ZM169.677 41.1684C166.582 41.8834 165.374 44.9276 166.155 47.4762C166.953 50.0886 169.641 51.5116 172.169 50.9027C174.993 50.2231 176.59 47.4515 175.895 44.7754C175.2 42.0994 172.608 40.4888 169.681 41.1649L169.677 41.1684Z" fill="white"/>
<path d="M121.572 58.0626C126.517 56.7282 131.162 59.6768 132.293 64.3174C133.423 68.958 130.656 73.3579 126.142 74.5932C121.572 75.8428 116.815 73.2127 115.493 68.6429C114.227 64.2784 116.694 59.3759 121.572 58.0626ZM121.928 61.5634C118.94 62.4909 117.792 65.5917 118.687 68.027C119.646 70.6358 122.434 71.8287 124.93 71.1526C127.779 70.3845 129.109 67.5138 128.271 64.8271C127.494 62.3351 124.805 60.6714 121.925 61.5634H121.928Z" fill="white"/>
<path d="M145.741 34.0109L142.69 28.8712C142.39 28.365 140.65 28.365 140.54 28.8925L140.461 33.9153H136.607L136.604 17.5582L143.706 17.5157C146.241 17.5016 148.341 19.1546 149.011 21.3599C149.735 23.7386 148.932 26.1987 146.351 27.6783L149.895 33.8764L145.745 34.0109H145.741ZM144.041 24.8147C144.597 24.7828 145.289 23.6147 145.289 23.1121C145.289 22.6094 144.818 21.4448 144.301 21.3245C143.103 21.0484 141.763 21.0307 140.511 21.0802L140.54 25.02L144.041 24.8182V24.8147Z" fill="white"/>
<path d="M122.294 17.4797C127.211 16.1346 131.857 19.1328 133.03 23.7309C134.156 28.152 131.393 32.7785 126.862 34.0103C122.33 35.2421 117.531 32.6971 116.237 28.0848C115.017 23.738 117.428 18.8106 122.298 17.4797H122.294ZM122.979 21.0902C120.116 22.1699 119.335 25.3344 120.305 27.6352C121.421 30.29 124.369 31.3626 126.851 30.3891C129.486 29.3555 130.623 26.4671 129.764 24.0919C128.79 21.3982 125.842 20.0106 122.979 21.0902Z" fill="white"/>
<path d="M181.754 71.1566C184.197 71.7513 186.261 70.4734 186.935 68.0452L190.818 68.07C190.172 72.2433 186.914 74.8167 182.899 74.8946C177.993 74.9866 174.132 71.1035 174.043 66.4948C173.95 61.6984 177.872 57.6773 182.899 57.741C186.928 57.7905 190.222 60.5657 190.725 64.3815L186.96 64.4063C186.065 62.0099 183.73 60.7498 181.337 61.5922C179.173 62.3533 177.904 64.3603 177.979 66.4912C178.05 68.5124 179.369 70.5761 181.758 71.1566H181.754Z" fill="white"/>
<path d="M131.233 51.2807H125.162L123.914 54.2541L119.867 54.155L126.167 37.9855C127.362 37.812 128.691 37.7943 130.153 37.8651L136.557 54.1338L132.424 54.2647L131.23 51.2807H131.233ZM130.135 47.9038L128.174 42.8703L126.267 47.8826L130.135 47.9038Z" fill="white"/>
<path d="M146.518 58.1599L150.475 58.1422L150.425 68.1137C150.404 71.9861 147.17 74.8923 143.505 74.8887C139.847 74.8887 136.613 71.9897 136.602 68.1172L136.57 58.1635L140.481 58.1387L140.464 68.1207C140.464 69.972 141.786 71.3101 143.508 71.3171C145.231 71.3242 146.553 69.9614 146.55 68.1243L146.518 58.1528V58.1599Z" fill="white"/>
<path d="M162.433 30.3839L162.462 33.9449L152.4 33.9237L152.425 17.5488L156.294 17.5701L156.308 30.3308L162.433 30.3839Z" fill="white"/>
<path d="M214.703 70.9898L214.674 74.5437L204.648 74.5401L204.652 58.1582L208.542 58.1653L208.552 70.9544L214.703 70.9898Z" fill="white"/>
<path d="M117.748 54.0763C116.571 54.2285 115.248 54.2462 113.851 54.1931L113.844 37.8643L117.726 37.8359L117.748 54.0763Z" fill="white"/>
<path d="M199.665 74.4746L195.736 74.5171V58.1458L199.655 58.1387L199.665 74.4746Z" fill="white"/>
</svg>
