<svg width="460" height="474" viewBox="0 0 460 474" fill="none" xmlns="http://www.w3.org/2000/svg">
<g opacity="0.4">
<g filter="url(#filter0_d_3026_2906)">
<mask id="path-1-inside-1_3026_2906" fill="white">
<path d="M257.807 274.486C273.754 297.022 279.418 309.308 279.418 330.306C279.418 356.938 262.949 385.107 232.059 405.585C201.169 385.107 184.7 356.938 184.7 330.306C184.7 309.308 190.364 297.022 206.331 274.486L202.214 272.428L190.364 286.253C159.996 321.595 151.741 338.497 151.741 354.36C151.741 394.816 200.646 427.082 220.731 455.252L228.443 466H235.653L243.386 455.252C263.471 427.602 312.377 394.816 312.377 354.36C312.377 338.476 304.142 321.574 273.754 286.253L261.924 272.428L257.807 274.486ZM14.8052 221.742L4 229.435V236.607L14.8052 244.278C43.6261 264.756 75.54 312.905 116.232 312.905C132.199 312.905 149.17 304.714 184.7 274.507L198.598 262.719L196.529 258.623C173.874 274.507 161.522 280.12 140.936 280.12C113.64 280.12 85.342 263.218 65.2573 233.01C85.342 202.782 113.661 185.901 140.936 185.901C161.522 185.901 173.874 191.535 196.529 207.418L198.598 203.323L184.7 191.556C149.17 161.348 132.199 153.137 116.232 153.137C75.5609 153.137 43.1245 201.784 14.8052 221.763M275.3 191.535L261.402 203.302L263.45 207.398C286.105 191.514 298.457 185.88 319.044 185.88C346.318 185.88 374.637 202.782 394.722 232.99C374.637 263.197 346.318 280.099 319.044 280.099C298.457 280.099 286.105 274.465 263.45 258.602L261.402 262.698L275.3 274.486C310.83 304.693 327.822 312.884 343.768 312.884C384.439 312.884 416.353 264.735 445.195 244.258L456 236.586V229.414L445.195 221.722C416.876 201.743 384.439 153.095 343.768 153.095C327.801 153.095 310.809 161.286 275.3 191.514M228.464 0L220.752 10.7482C200.667 38.9182 151.762 71.1838 151.762 111.64C151.762 127.503 159.996 144.405 190.384 179.747L202.235 193.572L206.352 191.514C190.384 168.978 184.721 156.692 184.721 136.214C184.721 109.083 201.712 80.9133 232.08 60.9345C262.447 80.9133 279.438 109.083 279.438 136.214C279.438 156.692 273.775 168.978 257.828 191.514L261.945 193.572L273.775 179.747C304.163 144.405 312.397 127.503 312.397 111.64C312.397 71.1838 264.014 39.438 243.407 10.7482L235.674 0H228.464Z"/>
</mask>
<path d="M257.807 274.486L257.36 273.591L256.318 274.112L256.991 275.063L257.807 274.486ZM232.059 405.585L231.506 406.419L232.059 406.785L232.611 406.419L232.059 405.585ZM206.331 274.486L207.147 275.064L207.821 274.113L206.778 273.591L206.331 274.486ZM202.214 272.428L202.661 271.533L201.963 271.184L201.454 271.777L202.214 272.428ZM190.364 286.253L191.122 286.904L191.123 286.904L190.364 286.253ZM220.731 455.252L219.917 455.832L219.918 455.835L220.731 455.252ZM228.443 466L227.63 466.583L227.93 467H228.443V466ZM235.653 466V467H236.166L236.465 466.584L235.653 466ZM243.386 455.252L242.577 454.664L242.575 454.668L243.386 455.252ZM273.754 286.253L272.994 286.903L272.996 286.905L273.754 286.253ZM261.924 272.428L262.684 271.777L262.176 271.184L261.477 271.533L261.924 272.428ZM4 229.435L3.42005 228.62L3 228.919V229.435H4ZM4 236.607H3V237.123L3.42109 237.422L4 236.607ZM14.8052 244.278L15.3844 243.463L15.3841 243.463L14.8052 244.278ZM184.7 274.507L184.053 273.744L184.052 273.745L184.7 274.507ZM198.598 262.719L199.245 263.481L199.846 262.972L199.491 262.268L198.598 262.719ZM196.529 258.623L197.422 258.172L196.901 257.141L195.955 257.804L196.529 258.623ZM65.2573 233.01L64.4244 232.457L64.0566 233.011L64.4246 233.564L65.2573 233.01ZM196.529 207.418L195.955 208.237L196.901 208.9L197.422 207.869L196.529 207.418ZM198.598 203.323L199.491 203.774L199.846 203.069L199.244 202.56L198.598 203.323ZM184.7 191.556L184.052 192.318L184.054 192.319L184.7 191.556ZM261.402 203.302L260.756 202.539L260.156 203.046L260.508 203.749L261.402 203.302ZM263.45 207.398L262.556 207.845L263.074 208.882L264.024 208.216L263.45 207.398ZM394.722 232.99L395.555 233.543L395.923 232.99L395.555 232.436L394.722 232.99ZM263.45 258.602L264.024 257.783L263.074 257.118L262.556 258.155L263.45 258.602ZM261.402 262.698L260.508 262.251L260.156 262.953L260.755 263.461L261.402 262.698ZM275.3 274.486L275.948 273.724L275.947 273.723L275.3 274.486ZM445.195 244.258L444.616 243.442L444.616 243.442L445.195 244.258ZM456 236.586L456.579 237.402L457 237.103V236.586H456ZM456 229.414H457V228.898L456.58 228.599L456 229.414ZM445.195 221.722L445.775 220.907L445.771 220.905L445.195 221.722ZM228.464 0V-1H227.951L227.651 -0.582974L228.464 0ZM220.752 10.7482L219.939 10.1653L219.938 10.1677L220.752 10.7482ZM190.384 179.747L191.144 179.097L191.143 179.095L190.384 179.747ZM202.235 193.572L201.475 194.223L201.983 194.816L202.682 194.467L202.235 193.572ZM206.352 191.514L206.799 192.409L207.842 191.887L207.168 190.936L206.352 191.514ZM232.08 60.9345L232.629 60.0991L232.08 59.7375L231.53 60.0991L232.08 60.9345ZM257.828 191.514L257.012 190.937L256.339 191.888L257.381 192.409L257.828 191.514ZM261.945 193.572L261.498 194.467L262.197 194.816L262.705 194.223L261.945 193.572ZM273.775 179.747L273.016 179.095L273.015 179.097L273.775 179.747ZM243.407 10.7482L244.219 10.1649L244.219 10.1642L243.407 10.7482ZM235.674 0L236.486 -0.584015L236.187 -1H235.674V0ZM257.807 274.486L256.991 275.063C264.955 286.318 270.3 294.945 273.664 303.345C277.018 311.719 278.418 319.91 278.418 330.306H279.418H280.418C280.418 319.704 278.986 311.253 275.521 302.601C272.066 293.974 266.606 285.19 258.624 273.908L257.807 274.486ZM279.418 330.306H278.418C278.418 356.516 262.197 384.406 231.506 404.752L232.059 405.585L232.611 406.419C263.701 385.809 280.418 357.359 280.418 330.306H279.418ZM232.059 405.585L232.611 404.752C201.921 384.406 185.7 356.516 185.7 330.306H184.7H183.7C183.7 357.359 200.417 385.809 231.506 406.419L232.059 405.585ZM184.7 330.306H185.7C185.7 319.91 187.1 311.719 190.456 303.345C193.822 294.945 199.173 286.318 207.147 275.064L206.331 274.486L205.515 273.908C197.522 285.189 192.057 293.973 188.599 302.601C185.132 311.253 183.7 319.704 183.7 330.306H184.7ZM206.331 274.486L206.778 273.591L202.661 271.533L202.214 272.428L201.767 273.322L205.884 275.38L206.331 274.486ZM202.214 272.428L201.454 271.777L189.604 285.602L190.364 286.253L191.123 286.904L202.973 273.078L202.214 272.428ZM190.364 286.253L189.605 285.601C159.247 320.932 150.741 338.089 150.741 354.36H151.741H152.741C152.741 338.905 160.745 322.258 191.122 286.904L190.364 286.253ZM151.741 354.36H150.741C150.741 374.984 163.199 393.409 177.955 410.076C185.344 418.422 193.368 426.388 200.761 433.99C208.172 441.609 214.945 448.859 219.917 455.832L220.731 455.252L221.545 454.671C216.475 447.56 209.603 440.212 202.195 432.595C194.769 424.96 186.801 417.049 179.453 408.75C164.735 392.128 152.741 374.191 152.741 354.36H151.741ZM220.731 455.252L219.918 455.835L227.63 466.583L228.443 466L229.255 465.417L221.543 454.669L220.731 455.252ZM228.443 466V467H235.653V466V465H228.443V466ZM235.653 466L236.465 466.584L244.198 455.836L243.386 455.252L242.575 454.668L234.842 465.416L235.653 466ZM243.386 455.252L244.195 455.839C249.169 448.993 255.943 441.807 263.355 434.21C270.75 426.631 278.773 418.649 286.163 410.27C300.92 393.537 313.377 374.983 313.377 354.36H312.377H311.377C311.377 374.193 299.38 392.26 284.663 408.947C277.316 417.277 269.347 425.204 261.924 432.813C254.517 440.404 247.646 447.685 242.577 454.664L243.386 455.252ZM312.377 354.36H313.377C313.377 338.069 304.891 320.912 274.512 285.601L273.754 286.253L272.996 286.905C303.393 322.237 311.377 338.884 311.377 354.36H312.377ZM273.754 286.253L274.514 285.603L262.684 271.777L261.924 272.428L261.165 273.078L272.994 286.903L273.754 286.253ZM261.924 272.428L261.477 271.533L257.36 273.591L257.807 274.486L258.254 275.38L262.372 273.322L261.924 272.428ZM14.8052 221.742L14.2253 220.928L3.42005 228.62L4 229.435L4.57995 230.249L15.3852 222.557L14.8052 221.742ZM4 229.435H3V236.607H4H5V229.435H4ZM4 236.607L3.42109 237.422L14.2263 245.094L14.8052 244.278L15.3841 243.463L4.57891 235.792L4 236.607ZM14.8052 244.278L14.226 245.094C21.3639 250.165 28.7147 256.966 36.3961 264.361C44.0596 271.738 52.0509 279.704 60.4081 287.023C77.1011 301.642 95.4949 313.905 116.232 313.905V312.905V311.905C96.2771 311.905 78.3679 300.093 61.7258 285.519C53.4154 278.241 45.4811 270.33 37.7832 262.92C30.1033 255.527 22.657 248.631 15.3844 243.463L14.8052 244.278ZM116.232 312.905V313.905C132.603 313.905 149.827 305.468 185.347 275.268L184.7 274.507L184.052 273.745C148.513 303.96 131.796 311.905 116.232 311.905V312.905ZM184.7 274.507L185.347 275.269L199.245 263.481L198.598 262.719L197.951 261.956L184.053 273.744L184.7 274.507ZM198.598 262.719L199.491 262.268L197.422 258.172L196.529 258.623L195.636 259.074L197.705 263.17L198.598 262.719ZM196.529 258.623L195.955 257.804C184.641 265.736 175.967 271.055 167.586 274.399C159.23 277.733 151.124 279.12 140.936 279.12V280.12V281.12C151.333 281.12 159.697 279.7 168.327 276.257C176.932 272.823 185.762 267.393 197.103 259.442L196.529 258.623ZM140.936 280.12V279.12C114.061 279.12 86.0423 262.465 66.0901 232.457L65.2573 233.01L64.4246 233.564C84.6418 263.971 113.22 281.12 140.936 281.12V280.12ZM65.2573 233.01L66.0902 233.564C86.0421 203.536 114.081 186.901 140.936 186.901V185.901V184.901C113.241 184.901 84.642 202.029 64.4244 232.457L65.2573 233.01ZM140.936 185.901V186.901C151.124 186.901 159.229 188.293 167.585 191.632C175.967 194.981 184.641 200.305 195.955 208.237L196.529 207.418L197.103 206.6C185.762 198.648 176.932 193.213 168.327 189.775C159.697 186.326 151.334 184.901 140.936 184.901V185.901ZM196.529 207.418L197.422 207.869L199.491 203.774L198.598 203.323L197.705 202.872L195.636 206.967L196.529 207.418ZM198.598 203.323L199.244 202.56L185.346 190.793L184.7 191.556L184.054 192.319L197.952 204.086L198.598 203.323ZM184.7 191.556L185.347 190.794C149.828 160.595 132.603 152.137 116.232 152.137V153.137V154.137C131.795 154.137 148.512 162.102 184.052 192.318L184.7 191.556ZM116.232 153.137V152.137C95.5039 152.137 76.9839 164.526 60.2277 179.206C51.838 186.556 43.8291 194.537 36.1876 201.891C28.5274 209.263 21.2393 216 14.2288 220.946L14.8052 221.763L15.3817 222.58C22.5307 217.537 29.917 210.701 37.5744 203.332C45.2504 195.945 53.2025 188.019 61.5456 180.71C78.2552 166.071 96.289 154.137 116.232 154.137V153.137ZM275.3 191.535L274.654 190.772L260.756 202.539L261.402 203.302L262.048 204.065L275.947 192.298L275.3 191.535ZM261.402 203.302L260.508 203.749L262.556 207.845L263.45 207.398L264.345 206.95L262.296 202.855L261.402 203.302ZM263.45 207.398L264.024 208.216C275.338 200.284 284.013 194.961 292.394 191.611C300.75 188.272 308.855 186.88 319.044 186.88V185.88V184.88C308.646 184.88 300.282 186.305 291.652 189.754C283.047 193.193 274.217 198.628 262.876 206.579L263.45 207.398ZM319.044 185.88V186.88C345.898 186.88 373.937 203.535 393.889 233.543L394.722 232.99L395.555 232.436C375.337 202.029 346.738 184.88 319.044 184.88V185.88ZM394.722 232.99L393.889 232.436C373.937 262.444 345.898 279.099 319.044 279.099V280.099V281.099C346.738 281.099 375.337 263.95 395.555 233.543L394.722 232.99ZM319.044 280.099V279.099C308.855 279.099 300.75 277.707 292.394 274.37C284.012 271.024 275.338 265.705 264.024 257.783L263.45 258.602L262.877 259.422C274.218 267.362 283.047 272.792 291.652 276.228C300.282 279.674 308.646 281.099 319.044 281.099V280.099ZM263.45 258.602L262.556 258.155L260.508 262.251L261.402 262.698L262.296 263.145L264.345 259.05L263.45 258.602ZM261.402 262.698L260.755 263.461L274.654 275.248L275.3 274.486L275.947 273.723L262.049 261.935L261.402 262.698ZM275.3 274.486L274.653 275.248C310.173 305.447 327.418 313.884 343.768 313.884V312.884V311.884C328.225 311.884 311.487 303.939 275.948 273.724L275.3 274.486ZM343.768 312.884V313.884C364.495 313.884 382.883 301.621 399.576 287.002C407.933 279.683 415.926 271.717 423.592 264.34C431.276 256.946 438.631 250.145 445.774 245.073L445.195 244.258L444.616 243.442C437.338 248.61 429.888 255.506 422.205 262.899C414.505 270.309 406.569 278.22 398.259 285.498C381.616 300.073 363.712 311.884 343.768 311.884V312.884ZM445.195 244.258L445.774 245.073L456.579 237.402L456 236.586L455.421 235.771L444.616 243.442L445.195 244.258ZM456 236.586H457V229.414H456H455V236.586H456ZM456 229.414L456.58 228.599L445.775 220.907L445.195 221.722L444.615 222.536L455.42 230.228L456 229.414ZM445.195 221.722L445.771 220.905C438.761 215.959 431.473 209.221 423.812 201.85C416.171 194.496 408.162 186.514 399.772 179.164C383.016 164.484 364.496 152.095 343.768 152.095V153.095V154.095C363.711 154.095 381.745 166.03 398.454 180.668C406.798 187.978 414.75 195.904 422.426 203.291C430.083 210.66 437.469 217.495 444.618 222.539L445.195 221.722ZM343.768 153.095V152.095C327.397 152.095 310.152 160.532 274.652 190.753L275.3 191.514L275.949 192.276C311.466 162.04 328.204 154.095 343.768 154.095V153.095ZM228.464 0L227.651 -0.582974L219.939 10.1653L220.752 10.7482L221.564 11.3312L229.276 0.582974L228.464 0ZM220.752 10.7482L219.938 10.1677C214.966 17.1411 208.193 24.3906 200.782 32.0104C193.389 39.6117 185.365 47.5784 177.976 55.9239C163.22 72.5908 150.762 91.0157 150.762 111.64H151.762H152.762C152.762 91.8085 164.756 73.8723 179.474 57.2497C186.822 48.9506 194.79 41.0404 202.216 33.4048C209.624 25.7879 216.496 18.4404 221.566 11.3288L220.752 10.7482ZM151.762 111.64H150.762C150.762 127.911 159.247 145.067 189.626 180.399L190.384 179.747L191.143 179.095C160.745 143.743 152.762 127.095 152.762 111.64H151.762ZM190.384 179.747L189.625 180.398L201.475 194.223L202.235 193.572L202.994 192.922L191.144 179.097L190.384 179.747ZM202.235 193.572L202.682 194.467L206.799 192.409L206.352 191.514L205.905 190.62L201.788 192.678L202.235 193.572ZM206.352 191.514L207.168 190.936C199.194 179.682 193.842 171.054 190.476 162.718C187.12 154.407 185.721 146.347 185.721 136.214H184.721H183.721C183.721 146.559 185.154 154.88 188.621 163.467C192.078 172.027 197.543 180.811 205.536 192.092L206.352 191.514ZM184.721 136.214H185.721C185.721 109.508 202.46 81.6184 232.629 61.7699L232.08 60.9345L231.53 60.0991C200.964 80.2083 183.721 108.658 183.721 136.214H184.721ZM232.08 60.9345L231.53 61.7699C261.699 81.6184 278.438 109.508 278.438 136.214H279.438H280.438C280.438 108.658 263.195 80.2083 232.629 60.0991L232.08 60.9345ZM279.438 136.214H278.438C278.438 146.347 277.04 154.407 273.686 162.718C270.322 171.054 264.976 179.682 257.012 190.937L257.828 191.514L258.644 192.092C266.627 180.81 272.086 172.027 275.541 163.466C279.005 154.88 280.438 146.559 280.438 136.214H279.438ZM257.828 191.514L257.381 192.409L261.498 194.467L261.945 193.572L262.392 192.678L258.275 190.62L257.828 191.514ZM261.945 193.572L262.705 194.223L274.534 180.397L273.775 179.747L273.015 179.097L261.186 192.922L261.945 193.572ZM273.775 179.747L274.533 180.399C304.912 145.067 313.397 127.911 313.397 111.64H312.397H311.397C311.397 127.095 303.414 143.743 273.016 179.095L273.775 179.747ZM312.397 111.64H313.397C313.397 91.0172 301.072 72.723 286.379 56.119C279.022 47.8058 271.015 39.8553 263.597 32.2297C256.163 24.5861 249.323 17.2702 244.219 10.1649L243.407 10.7482L242.595 11.3316C247.795 18.5712 254.731 25.9822 262.164 33.6241C269.614 41.2841 277.566 49.1779 284.881 57.4444C299.531 74 311.397 91.807 311.397 111.64H312.397ZM243.407 10.7482L244.219 10.1642L236.486 -0.584015L235.674 0L234.863 0.584015L242.595 11.3323L243.407 10.7482ZM235.674 0V-1H228.464V0V1H235.674V0Z" fill="#27574D" mask="url(#path-1-inside-1_3026_2906)"/>
</g>
</g>
<defs>
<filter id="filter0_d_3026_2906" x="0" y="0" width="460" height="474" filterUnits="userSpaceOnUse" color-interpolation-filters="sRGB">
<feFlood flood-opacity="0" result="BackgroundImageFix"/>
<feColorMatrix in="SourceAlpha" type="matrix" values="0 0 0 0 0 0 0 0 0 0 0 0 0 0 0 0 0 0 127 0" result="hardAlpha"/>
<feOffset dy="4"/>
<feGaussianBlur stdDeviation="2"/>
<feComposite in2="hardAlpha" operator="out"/>
<feColorMatrix type="matrix" values="0 0 0 0 0 0 0 0 0 0 0 0 0 0 0 0 0 0 0.25 0"/>
<feBlend mode="normal" in2="BackgroundImageFix" result="effect1_dropShadow_3026_2906"/>
<feBlend mode="normal" in="SourceGraphic" in2="effect1_dropShadow_3026_2906" result="shape"/>
</filter>
</defs>
</svg>
