<svg width="822" height="58" viewBox="0 0 822 58" fill="none" xmlns="http://www.w3.org/2000/svg">
<g filter="url(#filter0_d_2872_2689)">
<path d="M38.7305 1H782.762C788.657 1.00012 794.067 4.57407 799.223 9.1416C801.788 11.4147 804.23 13.8755 806.618 16.1982C808.986 18.5016 811.305 20.6729 813.565 22.2842V22.2852L816.5 24.3945V25.6143L813.566 27.7158C811.308 29.3267 808.99 31.4991 806.623 33.8027C804.236 36.1251 801.795 38.5855 799.229 40.8584C794.103 45.3997 788.723 48.9576 782.862 48.998H38.7305C32.8352 48.998 27.4245 45.4239 22.2686 40.8564C19.7027 38.5835 17.2608 36.1233 14.873 33.8008C12.6522 31.6406 10.4744 29.596 8.34766 28.0215L7.92285 27.7129L5 25.6133V24.3916L7.92285 22.2852C10.182 20.6742 12.5012 18.5016 14.8691 16.1973C17.2555 13.875 19.6961 11.4144 22.2617 9.1416C27.4175 4.57429 32.8308 1 38.7305 1Z" fill="#27574D" fill-opacity="0.6" stroke="#27574D" stroke-width="2"/>
</g>
<path d="M76.8819 31V22.2727H78.4629V25.9673H82.5069V22.2727H84.0921V31H82.5069V27.2926H78.4629V31H76.8819ZM88.5925 22.2727V31H87.0116V22.2727H88.5925ZM96.2474 24.6719C96.2077 24.2997 96.0401 24.0099 95.7446 23.8026C95.452 23.5952 95.0713 23.4915 94.6026 23.4915C94.273 23.4915 93.9903 23.5412 93.7545 23.6406C93.5187 23.7401 93.3384 23.875 93.2134 24.0455C93.0884 24.2159 93.0244 24.4105 93.0216 24.6293C93.0216 24.8111 93.0628 24.9687 93.1452 25.1023C93.2304 25.2358 93.3455 25.3494 93.4903 25.4432C93.6352 25.5341 93.7957 25.6108 93.9719 25.6733C94.148 25.7358 94.3256 25.7884 94.5045 25.831L95.3227 26.0355C95.6523 26.1122 95.969 26.2159 96.273 26.3466C96.5798 26.4773 96.854 26.642 97.0955 26.8409C97.3398 27.0398 97.533 27.2798 97.675 27.5611C97.817 27.8423 97.8881 28.1719 97.8881 28.5497C97.8881 29.0611 97.7574 29.5114 97.496 29.9006C97.2347 30.2869 96.8568 30.5895 96.3625 30.8082C95.871 31.0241 95.2759 31.1321 94.577 31.1321C93.898 31.1321 93.3085 31.027 92.8085 30.8168C92.3114 30.6065 91.9222 30.2997 91.6409 29.8963C91.3625 29.4929 91.2119 29.0014 91.1892 28.4219H92.7446C92.7673 28.7259 92.8611 28.9787 93.0259 29.1804C93.1906 29.3821 93.4051 29.5327 93.6693 29.6321C93.9364 29.7315 94.2347 29.7812 94.5642 29.7812C94.908 29.7812 95.2091 29.7301 95.4676 29.6278C95.729 29.5227 95.9335 29.3778 96.0812 29.1932C96.229 29.0057 96.3043 28.7869 96.3071 28.5369C96.3043 28.3097 96.2375 28.1222 96.1068 27.9744C95.9761 27.8239 95.7929 27.6989 95.5571 27.5994C95.3241 27.4972 95.0514 27.4062 94.7389 27.3267L93.746 27.071C93.0273 26.8864 92.4591 26.6065 92.0415 26.2315C91.6267 25.8537 91.4193 25.3523 91.4193 24.7273C91.4193 24.2131 91.5585 23.7628 91.8369 23.3764C92.1182 22.9901 92.5003 22.6903 92.9832 22.4773C93.4662 22.2614 94.0131 22.1534 94.6239 22.1534C95.2432 22.1534 95.7858 22.2614 96.2517 22.4773C96.7205 22.6903 97.0884 22.9872 97.3554 23.3679C97.6224 23.7457 97.7602 24.1804 97.7687 24.6719H96.2474ZM100.114 23.598V22.2727H107.077V23.598H104.38V31H102.811V23.598H100.114ZM117.031 26.6364C117.031 27.5767 116.855 28.3821 116.503 29.0526C116.153 29.7202 115.676 30.2315 115.071 30.5866C114.468 30.9418 113.785 31.1193 113.021 31.1193C112.257 31.1193 111.572 30.9418 110.967 30.5866C110.365 30.2287 109.887 29.7159 109.535 29.0483C109.186 28.3778 109.011 27.5739 109.011 26.6364C109.011 25.696 109.186 24.892 109.535 24.2244C109.887 23.554 110.365 23.0412 110.967 22.6861C111.572 22.331 112.257 22.1534 113.021 22.1534C113.785 22.1534 114.468 22.331 115.071 22.6861C115.676 23.0412 116.153 23.554 116.503 24.2244C116.855 24.892 117.031 25.696 117.031 26.6364ZM115.441 26.6364C115.441 25.9744 115.338 25.4162 115.13 24.9616C114.926 24.5043 114.642 24.1591 114.278 23.9261C113.914 23.6903 113.495 23.5724 113.021 23.5724C112.547 23.5724 112.128 23.6903 111.764 23.9261C111.4 24.1591 111.115 24.5043 110.907 24.9616C110.703 25.4162 110.601 25.9744 110.601 26.6364C110.601 27.2983 110.703 27.858 110.907 28.3153C111.115 28.7699 111.4 29.1151 111.764 29.3509C112.128 29.5838 112.547 29.7003 113.021 29.7003C113.495 29.7003 113.914 29.5838 114.278 29.3509C114.642 29.1151 114.926 28.7699 115.13 28.3153C115.338 27.858 115.441 27.2983 115.441 26.6364ZM119.726 31V22.2727H122.998C123.669 22.2727 124.231 22.3892 124.686 22.6222C125.143 22.8551 125.488 23.1818 125.721 23.6023C125.957 24.0199 126.075 24.5071 126.075 25.0639C126.075 25.6236 125.956 26.1094 125.717 26.5213C125.481 26.9304 125.133 27.2472 124.673 27.4716C124.213 27.6932 123.648 27.804 122.977 27.804H120.646V26.4915H122.764C123.156 26.4915 123.477 26.4375 123.727 26.3295C123.977 26.2187 124.162 26.0582 124.281 25.848C124.403 25.6349 124.464 25.3736 124.464 25.0639C124.464 24.7543 124.403 24.4901 124.281 24.2713C124.159 24.0497 123.973 23.8821 123.723 23.7685C123.473 23.652 123.15 23.5938 122.755 23.5938H121.307V31H119.726ZM124.234 27.0455L126.395 31H124.63L122.508 27.0455H124.234ZM127.794 22.2727H129.579L131.714 26.1335H131.8L133.935 22.2727H135.72L132.545 27.7443V31H130.969V27.7443L127.794 22.2727Z" fill="white"/>
<path d="M247.782 23.598V22.2727H254.745V23.598H252.048V31H250.479V23.598H247.782ZM257.287 31V22.2727H258.868V25.9673H262.912V22.2727H264.498V31H262.912V27.2926H258.868V31H257.287ZM267.417 31V22.2727H273.093V23.598H268.998V25.9673H272.799V27.2926H268.998V29.6747H273.127V31H267.417ZM287.553 25.2173H285.959C285.914 24.956 285.83 24.7244 285.708 24.5227C285.586 24.3182 285.434 24.1449 285.252 24.0028C285.07 23.8608 284.862 23.7543 284.63 23.6832C284.399 23.6094 284.151 23.5724 283.884 23.5724C283.409 23.5724 282.989 23.6918 282.622 23.9304C282.256 24.1662 281.969 24.5128 281.762 24.9702C281.554 25.4247 281.451 25.9801 281.451 26.6364C281.451 27.304 281.554 27.8665 281.762 28.3239C281.972 28.7784 282.259 29.1222 282.622 29.3551C282.989 29.5852 283.408 29.7003 283.88 29.7003C284.141 29.7003 284.385 29.6662 284.612 29.598C284.843 29.527 285.049 29.4233 285.23 29.2869C285.415 29.1506 285.57 28.983 285.695 28.7841C285.823 28.5852 285.911 28.358 285.959 28.1023L287.553 28.1108C287.493 28.5256 287.364 28.9148 287.165 29.2784C286.969 29.642 286.712 29.9631 286.394 30.2415C286.076 30.517 285.703 30.733 285.277 30.8892C284.851 31.0426 284.378 31.1193 283.858 31.1193C283.091 31.1193 282.407 30.9418 281.804 30.5866C281.202 30.2315 280.728 29.7188 280.381 29.0483C280.034 28.3778 279.861 27.5739 279.861 26.6364C279.861 25.696 280.036 24.892 280.385 24.2244C280.735 23.554 281.211 23.0412 281.813 22.6861C282.415 22.331 283.097 22.1534 283.858 22.1534C284.344 22.1534 284.796 22.2216 285.213 22.358C285.631 22.4943 286.003 22.6946 286.33 22.9588C286.657 23.2202 286.925 23.5412 287.135 23.9219C287.348 24.2997 287.487 24.7315 287.553 25.2173ZM290.201 31V22.2727H293.473C294.144 22.2727 294.706 22.3892 295.161 22.6222C295.618 22.8551 295.963 23.1818 296.196 23.6023C296.432 24.0199 296.55 24.5071 296.55 25.0639C296.55 25.6236 296.431 26.1094 296.192 26.5213C295.956 26.9304 295.608 27.2472 295.148 27.4716C294.688 27.6932 294.123 27.804 293.452 27.804H291.121V26.4915H293.239C293.631 26.4915 293.952 26.4375 294.202 26.3295C294.452 26.2187 294.637 26.0582 294.756 25.848C294.878 25.6349 294.939 25.3736 294.939 25.0639C294.939 24.7543 294.878 24.4901 294.756 24.2713C294.634 24.0497 294.448 23.8821 294.198 23.7685C293.948 23.652 293.625 23.5938 293.23 23.5938H291.782V31H290.201ZM294.709 27.0455L296.87 31H295.105L292.983 27.0455H294.709ZM299.205 31V22.2727H304.881V23.598H300.786V25.9673H304.587V27.2926H300.786V29.6747H304.916V31H299.205ZM308.815 31H307.128L310.2 22.2727H312.152L315.228 31H313.541L311.21 24.0625H311.142L308.815 31ZM308.871 27.5781H313.473V28.848H308.871V27.5781ZM316.14 23.598V22.2727H323.103V23.598H320.405V31H318.837V23.598H316.14ZM333.057 26.6364C333.057 27.5767 332.881 28.3821 332.528 29.0526C332.179 29.7202 331.702 30.2315 331.097 30.5866C330.494 30.9418 329.811 31.1193 329.047 31.1193C328.283 31.1193 327.598 30.9418 326.993 30.5866C326.391 30.2287 325.913 29.7159 325.561 29.0483C325.212 28.3778 325.037 27.5739 325.037 26.6364C325.037 25.696 325.212 24.892 325.561 24.2244C325.913 23.554 326.391 23.0412 326.993 22.6861C327.598 22.331 328.283 22.1534 329.047 22.1534C329.811 22.1534 330.494 22.331 331.097 22.6861C331.702 23.0412 332.179 23.554 332.528 24.2244C332.881 24.892 333.057 25.696 333.057 26.6364ZM331.467 26.6364C331.467 25.9744 331.364 25.4162 331.156 24.9616C330.952 24.5043 330.668 24.1591 330.304 23.9261C329.94 23.6903 329.521 23.5724 329.047 23.5724C328.572 23.5724 328.153 23.6903 327.79 23.9261C327.426 24.1591 327.141 24.5043 326.933 24.9616C326.729 25.4162 326.626 25.9744 326.626 26.6364C326.626 27.2983 326.729 27.858 326.933 28.3153C327.141 28.7699 327.426 29.1151 327.79 29.3509C328.153 29.5838 328.572 29.7003 329.047 29.7003C329.521 29.7003 329.94 29.5838 330.304 29.3509C330.668 29.1151 330.952 28.7699 331.156 28.3153C331.364 27.858 331.467 27.2983 331.467 26.6364ZM335.751 31V22.2727H339.024C339.695 22.2727 340.257 22.3892 340.712 22.6222C341.169 22.8551 341.514 23.1818 341.747 23.6023C341.983 24.0199 342.101 24.5071 342.101 25.0639C342.101 25.6236 341.982 26.1094 341.743 26.5213C341.507 26.9304 341.159 27.2472 340.699 27.4716C340.239 27.6932 339.673 27.804 339.003 27.804H336.672V26.4915H338.79C339.182 26.4915 339.503 26.4375 339.753 26.3295C340.003 26.2187 340.188 26.0582 340.307 25.848C340.429 25.6349 340.49 25.3736 340.49 25.0639C340.49 24.7543 340.429 24.4901 340.307 24.2713C340.185 24.0497 339.999 23.8821 339.749 23.7685C339.499 23.652 339.176 23.5938 338.781 23.5938H337.332V31H335.751ZM340.26 27.0455L342.42 31H340.656L338.534 27.0455H340.26Z" fill="white"/>
<path d="M468.748 23.598V22.2727H475.711V23.598H473.014V31H471.445V23.598H468.748ZM478.253 31V22.2727H479.834V25.9673H483.878V22.2727H485.464V31H483.878V27.2926H479.834V31H478.253ZM488.383 31V22.2727H494.059V23.598H489.964V25.9673H493.765V27.2926H489.964V29.6747H494.093V31H488.383ZM501.049 31V22.2727H504.321C504.992 22.2727 505.554 22.3892 506.009 22.6222C506.466 22.8551 506.811 23.1818 507.044 23.6023C507.28 24.0199 507.398 24.5071 507.398 25.0639C507.398 25.6236 507.279 26.1094 507.04 26.5213C506.804 26.9304 506.456 27.2472 505.996 27.4716C505.536 27.6932 504.971 27.804 504.3 27.804H501.969V26.4915H504.087C504.479 26.4915 504.8 26.4375 505.05 26.3295C505.3 26.2187 505.485 26.0582 505.604 25.848C505.726 25.6349 505.787 25.3736 505.787 25.0639C505.787 24.7543 505.726 24.4901 505.604 24.2713C505.482 24.0497 505.296 23.8821 505.046 23.7685C504.796 23.652 504.473 23.5938 504.079 23.5938H502.63V31H501.049ZM505.557 27.0455L507.718 31H505.954L503.831 27.0455H505.557ZM515.555 22.2727H517.136V27.9744C517.136 28.5994 516.988 29.1491 516.693 29.6236C516.4 30.098 515.988 30.4687 515.457 30.7358C514.926 31 514.305 31.1321 513.595 31.1321C512.881 31.1321 512.259 31 511.728 30.7358C511.197 30.4687 510.785 30.098 510.492 29.6236C510.2 29.1491 510.053 28.5994 510.053 27.9744V22.2727H511.634V27.8423C511.634 28.206 511.714 28.5298 511.873 28.8139C512.035 29.098 512.262 29.321 512.555 29.483C512.847 29.642 513.194 29.7216 513.595 29.7216C513.995 29.7216 514.342 29.642 514.634 29.483C514.93 29.321 515.157 29.098 515.316 28.8139C515.475 28.5298 515.555 28.206 515.555 27.8423V22.2727ZM520.054 31V22.2727H523.395C524.026 22.2727 524.55 22.3722 524.968 22.571C525.388 22.767 525.702 23.0355 525.909 23.3764C526.119 23.7173 526.225 24.1037 526.225 24.5355C526.225 24.8906 526.156 25.1946 526.02 25.4474C525.884 25.6974 525.7 25.9006 525.47 26.0568C525.24 26.2131 524.983 26.3253 524.699 26.3935V26.4787C525.009 26.4957 525.306 26.5909 525.59 26.7642C525.877 26.9347 526.111 27.1761 526.293 27.4886C526.475 27.8011 526.566 28.179 526.566 28.6222C526.566 29.0739 526.456 29.4801 526.237 29.8409C526.019 30.1989 525.689 30.4815 525.249 30.6889C524.808 30.8963 524.254 31 523.587 31H520.054ZM521.635 29.679H523.335C523.909 29.679 524.323 29.5696 524.575 29.3509C524.831 29.1293 524.959 28.8452 524.959 28.4986C524.959 28.2401 524.895 28.0071 524.767 27.7997C524.639 27.5895 524.458 27.4247 524.222 27.3054C523.986 27.1832 523.705 27.1222 523.378 27.1222H521.635V29.679ZM521.635 25.9844H523.199C523.472 25.9844 523.718 25.9347 523.936 25.8352C524.155 25.733 524.327 25.5895 524.452 25.4048C524.58 25.2173 524.644 24.9957 524.644 24.7401C524.644 24.402 524.524 24.1236 524.286 23.9048C524.05 23.6861 523.699 23.5767 523.233 23.5767H521.635V25.9844ZM528.544 22.2727H530.33L532.465 26.1335H532.55L534.685 22.2727H536.47L533.296 27.7443V31H531.719V27.7443L528.544 22.2727Z" fill="white"/>
<path d="M676.951 23.598V22.2727H683.914V23.598H681.217V31H679.649V23.598H676.951ZM688.037 22.2727V31H686.456V22.2727H688.037ZM690.949 22.2727H692.884L695.475 28.5966H695.577L698.168 22.2727H700.103V31H698.586V25.0043H698.505L696.093 30.9744H694.959L692.547 24.9915H692.467V31H690.949V22.2727ZM703.024 31V22.2727H708.701V23.598H704.605V25.9673H708.407V27.2926H704.605V29.6747H708.735V31H703.024ZM711.514 31V22.2727H713.094V29.6747H716.938V31H711.514ZM721.091 22.2727V31H719.51V22.2727H721.091ZM731.175 22.2727V31H729.769L725.657 25.0554H725.584V31H724.003V22.2727H725.418L729.526 28.2216H729.603V22.2727H731.175ZM734.098 31V22.2727H739.774V23.598H735.679V25.9673H739.48V27.2926H735.679V29.6747H739.808V31H734.098Z" fill="white"/>
<line x1="193" x2="193" y2="49" stroke="#27574D" stroke-width="2"/>
<line x1="400" x2="400" y2="49" stroke="#27574D" stroke-width="2"/>
<line x1="611" x2="611" y2="49" stroke="#27574D" stroke-width="2"/>
<defs>
<filter id="filter0_d_2872_2689" x="0" y="0" width="821.5" height="58" filterUnits="userSpaceOnUse" color-interpolation-filters="sRGB">
<feFlood flood-opacity="0" result="BackgroundImageFix"/>
<feColorMatrix in="SourceAlpha" type="matrix" values="0 0 0 0 0 0 0 0 0 0 0 0 0 0 0 0 0 0 127 0" result="hardAlpha"/>
<feOffset dy="4"/>
<feGaussianBlur stdDeviation="2"/>
<feComposite in2="hardAlpha" operator="out"/>
<feColorMatrix type="matrix" values="0 0 0 0 0 0 0 0 0 0 0 0 0 0 0 0 0 0 0.05 0"/>
<feBlend mode="normal" in2="BackgroundImageFix" result="effect1_dropShadow_2872_2689"/>
<feBlend mode="normal" in="SourceGraphic" in2="effect1_dropShadow_2872_2689" result="shape"/>
</filter>
</defs>
</svg>
