<svg xmlns="http://www.w3.org/2000/svg" width="72" height="72" viewBox="0 0 72 72" fill="none">
  <path d="M35.8573 72H35.7622C27.2972 71.81 19.2127 68.8654 12.8402 63.5462H12.6499V63.3562C11.889 62.6913 11.2232 62.1214 10.5575 61.3615C5.23117 56.1372 1.71202 49.4881 0.475561 42.2691L0.285337 42.0792L0.475561 41.8892C0.190225 39.9894 0 37.9947 0 36C0 29.6359 1.61691 23.5567 4.75561 18.1425V17.8575H4.94584C6.46764 15.2929 8.36988 12.8232 10.5575 10.6385C14.2668 6.93404 18.7371 4.08443 23.5878 2.27968V1.99472C23.683 1.99472 23.9683 2.08971 23.9683 2.08971C27.5826 0.759894 31.6724 0 35.8573 0C40.0423 0 44.1321 0.759894 48.0317 2.08971H48.317C48.317 1.99472 48.4122 2.1847 48.4122 2.1847C53.2629 3.98945 57.638 6.74406 61.3474 10.4485C63.535 12.6332 65.4372 15.1029 66.959 17.6675H67.2444V18.0475C70.288 23.3668 72 29.4459 72 35.81C72 37.8997 71.8098 39.8945 71.5244 41.8892L71.7147 42.0792L71.5244 42.2691C70.288 49.3931 66.8639 56.0422 61.6328 61.2665C60.8719 62.0264 60.2061 62.6913 59.4452 63.3562V63.5462H59.255C52.7873 68.8654 44.7979 71.81 36.3329 71.905H36.2378L35.8573 72ZM24.3487 68.9604C27.6777 70.1003 31.1968 70.7652 34.8111 70.8602L26.6314 62.5963L24.2536 68.9604H24.3487ZM45.0832 62.5963L36.9036 70.8602C40.5178 70.7652 44.037 70.1003 47.3659 68.9604L44.9881 62.5963H45.0832ZM27.2021 61.8364L35.8573 70.6702L44.6077 61.7414L35.8573 55.9472L27.2021 61.8364ZM14.1717 63.3562C17.0251 65.6359 20.1638 67.3456 23.4927 68.6755L25.8705 62.3113L14.2668 63.4512L14.1717 63.3562ZM46.0343 62.3113L48.4122 68.6755C51.7411 67.4406 54.8798 65.6359 57.638 63.4512L46.0343 62.3113ZM45.9392 61.3615L58.2087 62.5963L59.1598 50.248L48.7926 51.3879L45.9392 61.4565V61.3615ZM12.5548 50.153L13.5059 62.5013L25.8705 61.3615L22.9221 51.2929L12.5548 50.153ZM60.2061 50.438L59.3501 62.0264C59.8256 61.5515 60.3012 61.1715 60.7767 60.6966C62.8692 58.6069 64.6764 56.3272 66.103 53.8575L60.2061 50.533V50.438ZM5.70674 53.7625C7.22853 56.2322 9.03567 58.6069 11.1281 60.6966C11.6037 61.1715 11.9841 61.5514 12.4597 61.9314L11.6037 50.343L5.70674 53.7625ZM24.0634 51.5778L26.8217 60.9815L34.9062 55.5673L24.1585 51.5778H24.0634ZM36.9987 55.5673L45.0832 60.8865L47.7464 51.6728L36.9987 55.5673ZM35.8573 54.8074H36.0476C36.0476 54.9024 48.1268 50.533 48.1268 50.533V50.343H48.317L54.6896 39.2295C54.6896 39.1346 54.6896 39.0396 54.6896 39.0396L52.4069 26.3113L42.5152 18.0475H42.4201H29.5799L19.6882 26.2164V26.4063H19.498L17.4055 39.0396L23.8732 50.248L35.9524 54.7124H36.0476L35.8573 54.8074ZM60.6816 49.5831L66.5786 52.9076C68.2906 49.8681 69.5271 46.4485 70.288 43.029L60.6816 49.5831ZM1.61691 43.029C2.37781 46.5435 3.61427 49.8681 5.32629 52.9076L11.2232 49.4881L1.61691 42.934V43.029ZM55.1651 40.3694L49.4584 50.248L59.0647 49.2032L55.1651 40.3694ZM12.745 49.2032L22.4465 50.248L16.7398 40.2744L12.8402 49.2032H12.745ZM55.7358 39.4195L60.0159 49.0132L70.288 41.9842L63.0594 31.9156L55.8309 39.4195H55.7358ZM1.61691 41.8892L11.889 48.9182L16.074 39.4195L8.84544 31.9156L1.61691 41.9842V41.8892ZM63.8203 31.4406L70.5733 40.8443C70.7635 39.2295 70.9538 37.5198 70.9538 35.905C70.9538 34.0053 70.7635 32.1055 70.4782 30.3008L63.8203 31.4406ZM1.33157 30.3008C1.04624 32.2005 0.85601 34.1003 0.85601 36C0.85601 37.6148 0.951123 39.2295 1.23646 40.8443L7.98943 31.4406L1.33157 30.3008ZM9.60634 31.2507L16.3593 38.2797L18.2616 26.9763L9.60634 31.2507ZM53.4531 26.9763L55.4505 38.3747L62.2034 31.3456L53.358 26.9763H53.4531ZM66.7688 19.3773L63.6301 30.4908L70.288 29.3509C69.6222 25.8364 68.4809 22.5119 66.7688 19.3773ZM1.42668 29.3509L8.08454 30.4908L4.94584 19.3773C3.23382 22.5119 2.09247 25.8364 1.42668 29.3509ZM5.70674 18.5224L9.03567 30.3958L18.3567 25.7414L17.6909 15.3879L5.70674 18.4274V18.5224ZM53.358 25.8364L62.7741 30.3958L66.103 18.4274L54.0238 15.3879L53.358 25.8364ZM43.5614 17.7625L52.4069 25.1715L52.9775 15.4828L43.5614 17.7625ZM18.642 15.4828L19.3078 25.0765L28.1532 17.7625L18.642 15.4828ZM13.0304 9.40369C12.3646 9.97361 11.6988 10.5435 11.1281 11.2084C9.22589 13.1082 7.60898 15.1979 6.1823 17.3826L17.4055 14.533L13.0304 9.40369ZM54.4042 14.533L65.6275 17.3826C64.2008 15.1029 62.5839 13.0132 60.5865 11.1135C60.0159 10.5435 59.3501 9.87863 58.6843 9.30871L54.3091 14.438L54.4042 14.533ZM30.1506 17.0976H41.5641L35.8573 9.21372L30.1506 17.0976ZM36.6182 8.6438L42.7054 17.0026L52.9775 14.533L47.8415 3.22955L36.6182 8.6438ZM18.8322 14.533L29.0092 17.0026L35.1915 8.54881L23.9683 3.22955L18.8322 14.533ZM13.6962 8.83377L17.9762 13.9631L22.7318 3.41952C19.498 4.74934 16.3593 6.55409 13.6011 8.83377H13.6962ZM48.9828 3.41952L53.7384 13.9631L58.0185 8.83377C55.2602 6.55409 52.2166 4.74934 48.8877 3.51451L48.9828 3.41952ZM25.0145 2.65963L35.4769 7.69393V0.949868C31.8626 0.949868 28.3435 1.61478 25.0145 2.65963ZM36.3329 0.949868V7.69393L46.7952 2.65963C43.4663 1.61478 39.9472 0.949868 36.3329 0.949868Z" fill="#D9D9D9"/>
</svg>
