<svg xmlns="http://www.w3.org/2000/svg" width="72" height="72" viewBox="0 0 72 72" fill="none">
  <path d="M36 0C16.1905 0 0 16.1905 0 36C0 55.8095 16.1905 72 36 72C55.8095 72 72 55.8095 72 36C72 16.1905 55.9048 0 36 0ZM71.1429 36C71.1429 37.9048 70.9524 39.8095 70.6667 41.619L62.6667 36L70.6667 30.381C70.9524 32.1905 71.1429 34.0952 71.1429 36ZM0.952381 36C0.952381 34.0952 1.14286 32.1905 1.42857 30.381L9.42857 36L1.42857 41.619C1.14286 39.8095 0.952381 37.9048 0.952381 36ZM56.0952 36C56.0952 37.0476 56 38 55.8095 39.0476L44.2857 36.9524L55.8095 33.0476C55.9048 34 56.0952 34.9524 56.0952 36ZM15.9048 36C15.9048 34.9524 16 34 16.1905 33.0476L27.7143 36.9524L16.1905 39.0476C16 38.0952 15.9048 37.0476 15.9048 36ZM37.4286 35.7143L41.9048 33.1429L53.5238 32.8571L42.4762 36.5714L37.5238 35.7143H37.4286ZM39.8095 41.2381L42.0952 52.6667L36.4762 42.4762V37.3333L39.8095 41.3333V41.2381ZM35.5238 37.3333V42.4762L29.9048 52.6667L32.1905 41.2381L35.5238 37.2381V37.3333ZM29.7143 36.6667L18.5714 32.9524L30.1905 33.2381L34.6667 35.8095L29.7143 36.6667ZM37.8095 29.8095L36.0952 34.5714L34.381 29.8095L36.0952 18.2857L37.8095 29.8095ZM43.619 32.1905L53.619 26.4762C54.5714 28.1905 55.2381 30 55.619 31.9048L43.5238 32.1905H43.619ZM36.9524 34.9524L38.7619 30.0952L47.5238 22.381L41.4286 32.381L37.0476 34.8571L36.9524 34.9524ZM39.4286 28.1905L43.4286 17.3333C45.2381 18.0952 46.9524 19.0476 48.4762 20.2857L39.4286 28.2857V28.1905ZM38.4762 27.9048L36.6667 15.9048C38.6667 15.9048 40.6667 16.2857 42.4762 16.9524L38.4762 27.9048ZM33.619 27.9048L29.619 16.9524C31.4286 16.2857 33.4286 16 35.4286 15.9048L33.619 27.9048ZM32.6667 28.1905L23.619 20.1905C25.1429 18.9524 26.8571 18 28.6667 17.2381L32.6667 28.0952V28.1905ZM33.3333 30.0952L35.1429 34.9524L30.7619 32.4762L24.6667 22.4762L33.4286 30.1905L33.3333 30.0952ZM16.381 31.9048C16.7619 30 17.4286 28.0952 18.381 26.4762L28.381 32.1905L16.2857 31.9048H16.381ZM27.8095 38L18.381 45.5238C17.4286 43.8095 16.7619 42 16.381 40L27.8095 37.9048V38ZM29.7143 37.619L34.7619 36.6667L31.5238 40.5714L20.6667 44.8571L29.7143 37.619ZM28.5714 54.6667C26.7619 53.9048 25.0476 52.9524 23.5238 51.7143L30.9524 42.7619L28.5714 54.6667ZM35.5238 44.381V56.0952C33.5238 56.0952 31.5238 55.7143 29.7143 55.0476L35.5238 44.381ZM36.4762 44.381L42.2857 55.0476C40.4762 55.619 38.4762 56 36.4762 56.0952V44.381ZM41.0476 42.7619L48.4762 51.7143C46.9524 52.9524 45.2381 53.9048 43.4286 54.6667L41.0476 42.7619ZM37.2381 36.6667L42.2857 37.619L51.3333 44.8571L40.4762 40.5714L37.2381 36.6667ZM44.2857 38L55.7143 40.0952C55.3333 42 54.6667 43.9048 53.7143 45.619L44.2857 38.0952V38ZM54.6667 26.2857L59.4286 27.619L56.5714 31.7143C56.1905 29.8095 55.5238 28 54.6667 26.381V26.2857ZM43.0476 31.4286L49.3333 21.0476C50.8571 22.381 52.0952 23.9048 53.1429 25.619L43.0476 31.4286ZM44 16.5714L48.4762 14.4762L48.9524 19.4286C47.4286 18.2857 45.8095 17.2381 44 16.5714ZM43.4286 15.8095L41.0476 10.7619L47.5238 4.28571L48.381 13.4286L43.4286 15.7143V15.8095ZM42.4762 16C40.6667 15.4286 38.7619 15.0476 36.7619 15.0476L40.2857 11.5238L42.381 16H42.4762ZM36 14.381L32.0952 10.5714L36 2.28571L39.9048 10.5714L36 14.381ZM35.2381 15.0476C33.2381 15.0476 31.3333 15.4286 29.5238 16L31.619 11.5238L35.1429 15.0476H35.2381ZM28.6667 15.8095L23.7143 13.5238L24.5714 4.38095L31.0476 10.8571L28.6667 15.9048V15.8095ZM28.0952 16.5714C26.2857 17.3333 24.6667 18.2857 23.1429 19.4286L23.619 14.4762L28.0952 16.5714ZM29.0476 31.4286L18.9524 25.619C20 23.9048 21.2381 22.381 22.7619 21.0476L29.0476 31.4286ZM15.4286 31.619L12.5714 27.5238L17.3333 26.1905C16.4762 27.8095 15.8095 29.619 15.4286 31.5238V31.619ZM14.7619 32.2857L10.1905 35.5238L2.7619 30.2857L11.619 27.9048L14.7619 32.381V32.2857ZM15.2381 33.1429C15.1429 34.0952 15.0476 35.0476 15.0476 36.0952C15.0476 37.1429 15.0476 38.0952 15.2381 39.0476L11.1429 36.0952L15.2381 33.1429ZM14.7619 39.8095L11.619 44.2857L2.7619 41.9048L10.1905 36.6667L14.7619 39.9048V39.8095ZM15.4286 40.4762C15.8095 42.381 16.4762 44.1905 17.3333 45.8095L12.5714 44.4762L15.4286 40.381V40.4762ZM30.2857 42.0952L22.7619 51.1429C21.2381 49.8095 20 48.2857 18.9524 46.5714L30.2857 42.0952ZM28.0952 55.5238L23.619 57.619L23.1429 52.6667C24.6667 53.8095 26.2857 54.8571 28.0952 55.5238ZM28.6667 56.2857L31.0476 61.3333L24.5714 67.8095L23.7143 58.6667L28.6667 56.381V56.2857ZM29.619 56.0952C31.4286 56.6667 33.3333 57.0476 35.3333 57.0476L31.8095 60.5714L29.7143 56.0952H29.619ZM36 57.619L39.9048 61.4286L36 69.7143L32.0952 61.4286L36 57.619ZM36.7619 57.0476C38.7619 57.0476 40.6667 56.6667 42.4762 56.0952L40.381 60.5714L36.8571 57.0476H36.7619ZM43.4286 56.2857L48.381 58.5714L47.5238 67.7143L41.0476 61.2381L43.4286 56.1905V56.2857ZM44 55.5238C45.8095 54.7619 47.4286 53.8095 48.9524 52.6667L48.4762 57.619L44 55.5238ZM41.8095 42.0952L53.1429 46.5714C52.0952 48.2857 50.7619 49.8095 49.3333 51.1429L41.8095 42.0952ZM56.5714 40.4762L59.4286 44.5714L54.6667 45.9048C55.5238 44.2857 56.1905 42.4762 56.5714 40.5714V40.4762ZM57.3333 39.8095L61.9048 36.5714L69.3333 41.8095L60.4762 44.1905L57.3333 39.7143V39.8095ZM56.8571 38.9524C56.9524 38 57.0476 37.0476 57.0476 36C57.0476 34.9524 57.0476 34 56.8571 33.0476L60.9524 36L56.8571 38.9524ZM57.3333 32.2857L60.4762 27.8095L69.3333 30.1905L61.9048 35.4286L57.3333 32.1905V32.2857ZM60.9524 26.9524L66.5714 18.8571C68.381 22.0952 69.7143 25.7143 70.4762 29.5238L60.9524 26.9524ZM60 26.6667L54.7619 25.2381L56.1905 19.9048L65.3333 19.1429L60.0952 26.6667H60ZM53.9048 24.8571C52.8571 23.2381 51.619 21.7143 50.1905 20.381L55.2381 20L53.9048 24.8571ZM49.9048 19.4286L49.4286 14L57.7143 10.1905L55.4286 18.9524L49.9048 19.4286ZM49.3333 13.0476L48.4762 3.2381C52.0952 4.57143 55.4286 6.57143 58.2857 8.95238L49.3333 13.0476ZM40.6667 9.80952L36.4762 0.952381C40.381 0.952381 44.0952 1.71429 47.619 2.95238L40.6667 9.90476V9.80952ZM31.4286 9.80952L24.4762 2.85714C28 1.61905 31.7143 0.952381 35.619 0.857143L31.4286 9.71429V9.80952ZM22.7619 13.0476L13.8095 8.95238C16.7619 6.57143 20.0952 4.66667 23.619 3.2381L22.7619 13.0476ZM22.6667 14.0952L22.1905 19.5238L16.6667 19.0476L14.381 10.2857L22.6667 14.0952ZM22 20.381C20.5714 21.7143 19.3333 23.1429 18.2857 24.8571L16.9524 20L22 20.381ZM17.3333 25.2381L12.0952 26.6667L6.85714 19.1429L16 19.9048L17.4286 25.2381H17.3333ZM11.1429 26.9524L1.61905 29.5238C2.38095 25.7143 3.71429 22.0952 5.52381 18.8571L11.1429 26.9524ZM11.1429 45.1429L5.52381 53.2381C3.71429 50 2.38095 46.381 1.61905 42.5714L11.1429 45.1429ZM12.0952 45.3333L17.3333 46.7619L15.9048 52.0952L6.7619 52.8571L12 45.3333H12.0952ZM18.1905 47.2381C19.2381 48.8571 20.4762 50.381 21.9048 51.7143L16.8571 52.0952L18.1905 47.2381ZM22.1905 52.5714L22.6667 58L14.381 61.8095L16.6667 53.0476L22.1905 52.5714ZM22.7619 59.0476L23.619 68.8571C20 67.5238 16.6667 65.5238 13.8095 63.1429L22.7619 59.0476ZM31.4286 62.1905L35.619 71.0476C31.7143 71.0476 28 70.2857 24.4762 69.0476L31.4286 62.0952V62.1905ZM40.6667 62.1905L47.619 69.1429C44.0952 70.381 40.381 71.0476 36.4762 71.1429L40.6667 62.2857V62.1905ZM49.3333 59.0476L58.2857 63.1429C55.3333 65.5238 52 67.4286 48.4762 68.8571L49.3333 59.0476ZM49.4286 58L49.9048 52.5714L55.4286 53.0476L57.7143 61.8095L49.4286 58ZM50.0952 51.7143C51.5238 50.381 52.7619 48.9524 53.8095 47.2381L55.1429 52.0952L50.0952 51.7143ZM54.7619 46.7619L60 45.3333L65.2381 52.8571L56.0952 52.0952L54.6667 46.7619H54.7619ZM60.9524 45.1429L70.4762 42.5714C69.7143 46.381 68.381 50 66.5714 53.2381L60.9524 45.1429ZM66.1905 18.0952L56.4762 18.9524L58.9524 9.52381C61.8095 12 64.2857 14.8571 66.1905 18.1905V18.0952ZM13.1429 9.42857L15.619 18.8571L5.90476 18C7.80952 14.7619 10.2857 11.8095 13.1429 9.33333V9.42857ZM5.90476 54L15.7143 53.1429L13.2381 62.5714C10.381 60.0952 7.90476 57.2381 6 53.9048L5.90476 54ZM58.9524 62.5714L56.4762 53.1429L66.1905 54C64.2857 57.2381 61.8095 60.1905 58.9524 62.6667V62.5714Z" fill="#D9D9D9"/>
</svg>
