<svg width="25" height="25" viewBox="0 0 25 25" fill="none" xmlns="http://www.w3.org/2000/svg">
<path d="M21.5625 3.9845H3.43751C2.69043 3.9845 2.08301 4.59192 2.08301 5.339V15.8175C2.08301 16.5646 2.69043 17.172 3.43751 17.172H6.73926V20.6007C6.73926 20.7697 6.84082 20.9211 6.99608 20.9855C7.04784 21.007 7.10155 21.0178 7.15526 21.0178C7.26366 21.0178 7.37011 20.9758 7.45019 20.8957L11.1739 17.1719L21.5627 17.171C22.3098 17.171 22.9172 16.5635 22.9172 15.8165V5.33795C22.9172 4.59185 22.3096 3.9845 21.5625 3.9845ZM22.083 15.8165C22.083 16.1036 21.8496 16.337 21.5625 16.337H11.001C10.8907 16.337 10.7842 16.3809 10.7061 16.4591L7.57233 19.5928V16.7541C7.57233 16.5236 7.38581 16.3371 7.15533 16.3371H3.43758C3.15048 16.3371 2.91708 16.1037 2.91708 15.8166V5.33807C2.91708 5.05097 3.15048 4.81757 3.43758 4.81757H21.5626C21.8497 4.81757 22.0831 5.05096 22.0831 5.33807L22.083 15.8165Z" fill="black"/>
<path d="M17.6045 7.99999H7.39649C7.16602 7.99999 6.97949 8.18652 6.97949 8.41699C6.97949 8.64747 7.16601 8.83399 7.39649 8.83399H17.6045C17.835 8.83399 18.0215 8.64747 18.0215 8.41699C18.0205 8.18652 17.835 7.99999 17.6045 7.99999Z" fill="black"/>
<path d="M17.6045 12H7.39649C7.16602 12 6.97949 12.1865 6.97949 12.417C6.97949 12.6475 7.16601 12.834 7.39649 12.834H17.6045C17.835 12.834 18.0215 12.6475 18.0215 12.417C18.0205 12.1865 17.835 12 17.6045 12Z" fill="black"/>
</svg>
