<svg xmlns="http://www.w3.org/2000/svg" width="25" height="25" viewBox="0 0 25 25" fill="none">
  <path d="M19.6162 7.63867L19.8008 7.75684V17.1943L19.6162 17.3125L12.4004 21.9512L5.18457 17.3125L5 17.1943V7.75684L5.18457 7.63867L12.4004 3L19.6162 7.63867ZM6.14648 16.9795L12 20.7412V16.6895L9.39258 14.9512L6.14648 16.9795ZM12.8008 16.6895V20.7412L18.6533 16.9795L15.4072 14.9512L12.8008 16.6895ZM5.80078 16.2539L9 14.2539V10.6963L5.80078 8.69629V16.2539ZM15.8008 10.6963V14.2539L19 16.2539V8.69629L15.8008 10.6963ZM9.80078 10.6895V14.2617L12.4004 15.9941L15 14.2617V10.6895L12.4004 8.95605L9.80078 10.6895ZM6.14648 7.9707L9.39258 9.99902L12 8.26172V4.20801L6.14648 7.9707ZM12.8008 8.26172L15.4082 9.99902L18.6533 7.9707L12.8008 4.20801V8.26172Z" fill="black"/>
</svg>
