<svg xmlns="http://www.w3.org/2000/svg" width="25" height="25" viewBox="0 0 25 25" fill="none">
  <path d="M23.2499 5.125C23.2245 5.125 23.0995 5.15039 23.0995 5.15039L1.74997 9.54989C1.59958 9.57528 1.47457 9.70028 1.45017 9.84969C1.42478 10.0001 1.49998 10.1505 1.65037 10.2247L7.74987 13.4747L8.82507 19.4249V19.4503C8.87487 19.9503 9.17467 19.8751 9.17467 19.8751H9.20006C9.27525 19.8497 9.37486 19.8253 9.45006 19.7501L13.5253 17.0256L17.8008 19.8011C17.876 19.8509 18.0762 19.8509 18.126 19.8265C18.2256 19.8011 18.3262 19.7015 18.3506 19.6019L23.5001 5.62541C23.5001 5.60002 23.7003 5.07561 23.2501 5.12541L23.2499 5.125ZM19.2754 7.9005L10.4004 14.425C10.4004 14.425 10.3506 14.4504 10.3252 14.55L9.32517 17.8255L8.52537 13.3753L19.2754 7.9005ZM9.87486 18.5753L10.8749 15.2755L12.4247 16.3009L12.8749 16.6007L11.3495 17.6007L9.87486 18.5753ZM20.5751 6.4005L8.07511 12.801L2.87486 10.051L20.5751 6.4005ZM17.8251 18.925L12.1746 15.2248L11.325 14.675L22.4003 6.52445L17.8251 18.925Z" fill="black"/>
</svg>