
<svg width="814" height="76" viewBox="0 0 814 76" fill="none" xmlns="http://www.w3.org/2000/svg">
<g clip-path="url(#clip0_209_599)">
<path d="M583.433 0.939453C591.581 0.939453 600.779 2.92969 606.802 6.42937L605.39 25.9404H603.853C600.553 11.1031 591.694 3.39929 583.433 1.53205V0.950634V0.939453Z" fill="white"></path>
<path d="M317.022 2.33679V1.75537C331.894 1.75537 341.454 8.06151 341.454 20.3272C341.454 28.5005 332.606 36.5621 321.746 38.3064V37.602C326.583 34.3259 329.532 27.4383 329.532 19.7346C329.532 12.0308 326.108 3.96923 317.022 2.33679Z" fill="white"></path>
<path d="M249.626 1.75537H272.645L272.171 21.9596H270.634C266.859 9.58214 261.661 6.08246 256.35 4.56183L249.626 2.57159V1.75537Z" fill="white"></path>
<path d="M269.097 41.8062L250.214 36.2045V35.6231L267.798 31.7656L269.097 41.8062Z" fill="white"></path>
<path d="M29.2427 1.75537C44.1142 1.75537 53.6745 8.06151 53.6745 20.3272C53.6745 28.5005 44.8261 36.5621 33.9663 38.3064V37.602C38.8029 34.3259 41.7524 27.4383 41.7524 19.7346C41.7524 12.0308 38.3283 3.96923 29.2427 2.33679V1.75537Z" fill="white"></path>
<path d="M26.5304 73.8063H-0.500488V72.4087L1.86133 71.3577C6.23464 69.3674 7.64721 67.9698 7.64721 62.4799V13.0818C7.64721 7.59185 6.23464 6.19422 1.86133 4.20398L-0.500488 3.15296V1.74414H20.9819V2.32556L18.3827 3.958V35.4887L22.6317 38.0603V38.6418L18.3827 40.632V62.4687C18.3827 67.9586 19.7953 69.3562 24.1686 71.3465L26.5304 72.3975V73.7951V73.8063Z" fill="white"></path>
<path d="M64.8847 69.7251C62.0482 72.7664 58.3981 74.7455 55.0871 74.7455C50.0131 74.7455 47.0637 71.4806 40.0912 58.3987L32.5425 44.154C31.4802 42.0519 29.8303 40.5313 27.8188 39.2455V38.6641C37.8537 39.2455 43.4023 42.7452 45.8771 47.0722L56.2623 65.4092C58.3868 69.1437 59.7994 69.7251 64.8733 69.1437V69.7251H64.8847Z" fill="white"></path>
<path d="M101.6 1.75519C90.1525 4.79645 82.0048 19.276 82.0048 36.9086C82.0048 56.1736 90.1525 71.4805 101.6 73.9292V74.6336C82.8298 73.2359 69.7324 57.6942 69.7324 36.9086C69.7324 18.9182 82.8411 4.20385 101.6 1.05078V1.75519Z" fill="white"></path>
<path d="M113.522 74.6228V73.9184C124.969 71.4698 133.117 56.1628 133.117 36.8978C133.117 19.2652 124.969 4.78571 113.522 1.74445V1.04004C132.292 4.19311 145.39 18.9074 145.39 36.8978C145.39 57.6835 132.292 73.214 113.522 74.6228Z" fill="white"></path>
<path d="M177.97 36.0813L173.721 38.0715V71.4695L176.794 73.2249V73.8063H154.837V72.4087L157.199 71.3577C161.561 69.3674 162.985 67.9698 162.985 62.4799L163.098 13.0818C163.098 7.59185 161.686 6.19422 157.312 4.20398L154.95 3.15296V1.74414H176.783V2.32556L173.709 4.08099V32.9282L177.958 35.4999V36.0813H177.97Z" fill="white"></path>
<path d="M184.467 73.8064H180.58V73.2249C197.813 70.5415 200.887 65.2864 200.887 53.4903C200.887 41.6942 194.75 38.1946 183.303 36.3273L181.89 36.0925L182.128 35.5111C184.252 35.3881 185.902 35.1533 187.202 35.0415C191.801 32.0114 194.762 25.5823 194.762 18.5829C194.762 11.1028 191.338 3.98041 182.252 2.45978V1.75537C197.124 1.75537 206.684 7.5919 206.684 19.0413C206.684 26.1637 199.723 32.4698 190.987 34.6837H191.462C204.322 34.6837 212.707 43.9081 212.707 52.4393C212.707 66.5722 202.672 73.8064 184.501 73.8064" fill="white"></path>
<path d="M245.49 36.5509L241.241 38.5411V71.4806L244.303 73.2361V73.8175H222.471V72.4198L224.833 71.3688C229.206 69.3786 230.618 67.9809 230.618 62.491V13.0818C230.618 7.59185 229.206 6.19422 224.833 4.20398L222.471 3.15296V1.74414H244.303V2.32556L241.241 4.08099V33.3866L245.49 35.9583V36.5397V36.5509Z" fill="white"></path>
<path d="M274.883 73.8065H249.626V72.9903L259.537 71.2349C264.735 70.2957 270.035 64.9287 274.171 52.6631H275.708L274.883 73.7954V73.8065Z" fill="white"></path>
<path d="M314.31 73.8063H287.279V72.4087L289.641 71.3577C294.014 69.3674 295.427 67.9698 295.427 62.4799V13.0818C295.427 7.59185 294.014 6.19422 289.641 4.20398L287.279 3.15296V1.74414H308.762V2.32556L306.163 3.958V35.4887L310.412 38.0603V38.6418L306.163 40.632V62.4687C306.163 67.9586 307.575 69.3562 311.948 71.3465L314.31 72.3975V73.7951V73.8063Z" fill="white"></path>
<path d="M352.665 69.7251C349.828 72.7664 346.178 74.7455 342.867 74.7455C337.793 74.7455 334.844 71.4806 327.882 58.3987L320.334 44.154C319.271 42.0519 317.622 40.5313 315.61 39.2455V38.6641C325.645 39.2455 331.194 42.7452 333.668 47.0722L344.054 65.4092C346.178 69.1437 347.591 69.7251 352.665 69.1437V69.7251Z" fill="white"></path>
<path d="M358.688 21.9597L357.151 21.8367L357.863 0L375.446 1.75543V2.33685L372.734 3.49968C366.711 5.94834 362.586 11.7961 358.688 21.9485" fill="white"></path>
<path d="M405.551 73.8064H373.796V72.4087L376.158 71.3577C381.582 68.909 384.306 67.2654 384.306 61.7867L384.193 4.32702L380.656 2.33679V1.75537H398.601V2.33679L395.052 4.32702V61.7867C395.052 67.2766 397.765 68.909 403.2 71.3577L405.562 72.4087V73.8064H405.551Z" fill="white"></path>
<path d="M420.423 21.9597C416.061 9.80582 411.45 5.72472 406.738 3.62268L403.788 2.33685V1.75543L421.372 0L421.96 21.8367L420.423 21.9597Z" fill="white"></path>
<path d="M460.551 1.75519C449.103 4.79645 440.956 19.276 440.956 36.9086C440.956 56.1736 449.103 71.4805 460.551 73.9292V74.6336C441.781 73.2359 428.683 57.6942 428.683 36.9086C428.683 18.9182 441.792 4.20385 460.551 1.05078V1.75519Z" fill="white"></path>
<path d="M472.473 74.6228V73.9184C483.92 71.4698 492.068 56.1628 492.068 36.8978C492.068 19.2652 483.92 4.78571 472.473 1.74445V1.04004C491.243 4.19311 504.34 18.9074 504.34 36.8978C504.34 57.6835 491.243 73.214 472.473 74.6228Z" fill="white"></path>
<path d="M575.173 1.75519C563.725 4.79645 555.578 19.276 555.578 36.9086C555.578 56.1736 563.725 71.4805 575.173 73.9292V74.6336C556.403 73.2359 543.305 57.6942 543.305 36.9086C543.305 18.9182 556.403 4.20385 575.173 1.05078V1.75519Z" fill="white"></path>
<path d="M583.433 74.6225V74.0411C594.88 71.5924 600.779 63.5308 603.966 49.2861H605.503L606.915 69.0208C600.892 72.5204 591.569 74.6225 583.421 74.6225" fill="white"></path>
<path d="M648.705 1.75519C637.257 4.79645 629.11 19.276 629.11 36.9086C629.11 56.1736 637.257 71.4805 648.705 73.9292V74.6336C629.935 73.2359 616.837 57.6942 616.837 36.9086C616.837 18.9182 629.935 4.20385 648.705 1.05078V1.75519Z" fill="white"></path>
<path d="M660.627 74.6228V73.9184C672.075 71.4698 680.222 56.1628 680.222 36.8978C680.222 19.2652 672.075 4.78571 660.627 1.74445V1.04004C679.397 4.19311 692.495 18.9074 692.495 36.8978C692.495 57.6835 679.397 73.214 660.627 74.6228Z" fill="white"></path>
<path d="M728.035 73.8063H701.953V72.4087L704.315 71.3577C708.677 69.3674 710.214 67.9698 710.214 62.4799V13.0818C710.214 7.59185 708.801 6.19422 704.428 4.20398L702.066 3.15296V1.74414H727.91V3.15296L725.548 4.20398C721.186 6.19422 719.763 7.59185 719.763 13.0818V62.4799C719.763 67.9698 721.299 69.3674 725.661 71.3577L728.023 72.4087V73.8063H728.035Z" fill="white"></path>
<path d="M758.128 73.8065H740.183V72.4088L741.72 71.5926C746.681 69.021 747.98 66.8071 747.98 62.2452V25.2246H750.342V62.2452C750.342 66.7959 751.642 69.021 756.603 71.5926L758.139 72.4088V73.8065H758.128Z" fill="white"></path>
<path d="M814.314 3.15296L812.777 3.96918C807.816 6.54083 806.528 8.75469 806.528 13.3166V75.0921H805.579L748.692 12.1426L737.595 2.33674V1.75532H754.116L804.155 58.2758V13.3166C804.155 8.76587 802.855 6.54083 797.894 3.96918L796.358 3.15296V1.74414H814.303V3.15296H814.314Z" fill="white"></path>
</g>
<defs>
<clipPath id="clip0_209_599">
<rect width="814" height="75.0923" fill="white"></rect>
</clipPath>
</defs>
</svg>