<svg width="800" height="74" viewBox="0 0 800 74" fill="none" xmlns="http://www.w3.org/2000/svg">
<g clip-path="url(#clip0_204_35)">
<path d="M573.316 0.925537C581.316 0.925537 590.347 2.88682 596.261 6.3356L594.874 25.5628H593.365C590.125 10.9413 581.427 3.3496 573.316 1.50952V0.936556V0.925537Z" fill="black"/>
<path d="M311.75 2.30294V1.72998C326.351 1.72998 335.737 7.94439 335.737 20.0316C335.737 28.0861 327.05 36.0305 316.387 37.7493V37.0552C321.136 33.8268 324.032 27.0394 324.032 19.4477C324.032 11.8559 320.67 3.91164 311.75 2.30294Z" fill="black"/>
<path d="M245.579 1.72998H268.179L267.713 21.6403H266.204C262.499 9.4429 257.395 5.99413 252.18 4.49561L245.579 2.53433V1.72998Z" fill="black"/>
<path d="M264.695 41.198L246.156 35.6778V35.1048L263.419 31.3035L264.695 41.198Z" fill="black"/>
<path d="M29.2023 1.72998C43.8034 1.72998 53.1898 7.94439 53.1898 20.0316C53.1898 28.0861 44.5024 36.0305 33.84 37.7493V37.0552C38.5887 33.8268 41.4845 27.0394 41.4845 19.4477C41.4845 11.8559 38.1227 3.91164 29.2023 2.30294V1.72998Z" fill="black"/>
<path d="M26.5394 72.733H0V71.3557L2.31887 70.3199C6.61267 68.3587 7.99956 66.9814 7.99956 61.5713V12.8917C7.99956 7.48165 6.61267 6.10434 2.31887 4.14306L0 3.10732V1.71899H21.0918V2.29195L18.5399 3.90065V34.9727L22.7116 37.507V38.0799L18.5399 40.0412V61.5603C18.5399 66.9703 19.9268 68.3476 24.2206 70.3089L26.5394 71.3447V72.722V72.733Z" fill="black"/>
<path d="M64.1961 68.7111C61.4113 71.7081 57.8276 73.6584 54.5767 73.6584C49.595 73.6584 46.6992 70.441 39.8535 57.5494L32.442 43.5119C31.3991 41.4404 29.7792 39.9419 27.8043 38.6748V38.1018C37.6567 38.6748 43.1044 42.1235 45.5342 46.3877L55.7306 64.458C57.8165 68.1381 59.2034 68.7111 64.185 68.1381V68.7111H64.1961Z" fill="black"/>
<path d="M100.244 1.72981C89.0047 4.72683 81.0052 18.9957 81.0052 36.3719C81.0052 55.3567 89.0047 70.4409 100.244 72.854V73.5481C81.8151 72.1708 68.9559 56.8552 68.9559 36.3719C68.9559 18.6431 81.8262 4.14285 100.244 1.03564V1.72981Z" fill="black"/>
<path d="M111.949 73.5372V72.843C123.189 70.43 131.188 55.3457 131.188 36.3609C131.188 18.9848 123.189 4.71584 111.949 1.71882V1.02466C130.378 4.13186 143.238 18.6322 143.238 36.3609C143.238 56.8442 130.378 72.1488 111.949 73.5372Z" fill="black"/>
<path d="M175.225 35.5567L171.053 37.518V70.4301L174.071 72.16V72.733H152.513V71.3557L154.832 70.3199C159.115 68.3587 160.513 66.9814 160.513 61.5713L160.624 12.8917C160.624 7.48165 159.237 6.10434 154.943 4.14306L152.624 3.10732V1.71899H174.06V2.29195L171.042 4.02185V32.4495L175.214 34.9837V35.5567H175.225Z" fill="black"/>
<path d="M181.604 72.733H177.788V72.16C194.708 69.5156 197.726 64.3369 197.726 52.7124C197.726 41.0879 191.701 37.6392 180.462 35.7991L179.075 35.5677L179.308 34.9947C181.394 34.8735 183.013 34.6421 184.289 34.5319C188.805 31.5459 191.712 25.2103 191.712 18.3128C191.712 10.9414 188.35 3.92265 179.43 2.42414V1.72998C194.031 1.72998 203.417 7.48162 203.417 18.7645C203.417 25.7833 196.583 31.9977 188.006 34.1794H188.472C201.098 34.1794 209.331 43.2696 209.331 51.6767C209.331 65.604 199.479 72.733 181.638 72.733" fill="black"/>
<path d="M241.518 36.0195L237.346 37.9808V70.4411L240.353 72.171V72.744H218.917V71.3667L221.236 70.331C225.53 68.3697 226.917 66.9924 226.917 61.5823V12.8917C226.917 7.48165 225.53 6.10434 221.236 4.14306L218.917 3.10732V1.71899H240.353V2.29195L237.346 4.02185V32.9012L241.518 35.4355V36.0084V36.0195Z" fill="black"/>
<path d="M270.376 72.7329H245.579V71.9285L255.309 70.1986C260.413 69.2731 265.616 63.9842 269.677 51.897H271.186L270.376 72.7219V72.7329Z" fill="black"/>
<path d="M309.087 72.733H282.547V71.3557L284.866 70.3199C289.16 68.3587 290.547 66.9814 290.547 61.5713V12.8917C290.547 7.48165 289.16 6.10434 284.866 4.14306L282.547 3.10732V1.71899H303.639V2.29195L301.087 3.90065V34.9727L305.259 37.507V38.0799L301.087 40.0412V61.5603C301.087 66.9703 302.474 68.3476 306.768 70.3089L309.087 71.3447V72.722V72.733Z" fill="black"/>
<path d="M346.744 68.7111C343.959 71.7081 340.375 73.6584 337.124 73.6584C332.142 73.6584 329.247 70.441 322.412 57.5494L315.001 43.5119C313.958 41.4404 312.338 39.9419 310.363 38.6748V38.1018C320.215 38.6748 325.663 42.1235 328.093 46.3877L338.289 64.458C340.375 68.1381 341.762 68.7111 346.744 68.1381V68.7111Z" fill="black"/>
<path d="M352.657 21.6403L351.148 21.5191L351.847 0L369.111 1.7299V2.30286L366.448 3.44878C360.535 5.86182 356.485 11.6245 352.657 21.6292" fill="black"/>
<path d="M398.669 72.733H367.491V71.3556L369.81 70.3199C375.136 67.9069 377.81 66.2871 377.81 60.8881L377.699 4.26423L374.226 2.30294V1.72998H391.845V2.30294L388.361 4.26423V60.8881C388.361 66.2982 391.024 67.9069 396.361 70.3199L398.68 71.3556V72.733H398.669Z" fill="black"/>
<path d="M413.27 21.6403C408.987 9.66319 404.46 5.64145 399.834 3.56998L396.938 2.30286V1.7299L414.202 0L414.779 21.5191L413.27 21.6403Z" fill="black"/>
<path d="M452.668 1.72981C441.429 4.72683 433.429 18.9957 433.429 36.3719C433.429 55.3567 441.429 70.4409 452.668 72.854V73.5481C434.239 72.1708 421.38 56.8552 421.38 36.3719C421.38 18.6431 434.251 4.14285 452.668 1.03564V1.72981Z" fill="black"/>
<path d="M464.374 73.5372V72.843C475.613 70.43 483.613 55.3457 483.613 36.3609C483.613 18.9848 475.613 4.71584 464.374 1.71882V1.02466C482.803 4.13186 495.662 18.6322 495.662 36.3609C495.662 56.8442 482.803 72.1488 464.374 73.5372Z" fill="black"/>
<path d="M565.206 1.72981C553.967 4.72683 545.967 18.9957 545.967 36.3719C545.967 55.3567 553.967 70.4409 565.206 72.854V73.5481C546.777 72.1708 533.918 56.8552 533.918 36.3719C533.918 18.6431 546.777 4.14285 565.206 1.03564V1.72981Z" fill="black"/>
<path d="M573.316 73.5372V72.9642C584.556 70.5512 590.347 62.6069 593.476 48.5693H594.985L596.372 68.0169C590.458 71.4657 581.305 73.5372 573.305 73.5372" fill="black"/>
<path d="M637.402 1.72981C626.162 4.72683 618.163 18.9957 618.163 36.3719C618.163 55.3567 626.162 70.4409 637.402 72.854V73.5481C618.973 72.1708 606.113 56.8552 606.113 36.3719C606.113 18.6431 618.973 4.14285 637.402 1.03564V1.72981Z" fill="black"/>
<path d="M649.107 73.5372V72.843C660.346 70.43 668.346 55.3457 668.346 36.3609C668.346 18.9848 660.346 4.71584 649.107 1.71882V1.02466C667.536 4.13186 680.395 18.6322 680.395 36.3609C680.395 56.8442 667.536 72.1488 649.107 73.5372Z" fill="black"/>
<path d="M715.289 72.733H689.682V71.3557L692 70.3199C696.283 68.3587 697.792 66.9814 697.792 61.5713V12.8917C697.792 7.48165 696.405 6.10434 692.111 4.14306L689.793 3.10732V1.71899H715.167V3.10732L712.848 4.14306C708.565 6.10434 707.167 7.48165 707.167 12.8917V61.5713C707.167 66.9814 708.676 68.3587 712.959 70.3199L715.278 71.3557V72.733H715.289Z" fill="black"/>
<path d="M744.835 72.7329H727.216V71.3556L728.725 70.5512C733.596 68.017 734.872 65.8353 734.872 61.3398V24.8577H737.191V61.3398C737.191 65.8243 738.467 68.017 743.337 70.5512L744.846 71.3556V72.7329H744.835Z" fill="black"/>
<path d="M800 3.10732L798.491 3.91167C793.62 6.44591 792.355 8.62757 792.355 13.1231V74.0001H791.423L735.571 11.9662L724.675 2.30297V1.73001H740.896L790.025 57.4283V13.1231C790.025 8.63859 788.75 6.44591 783.879 3.91167L782.37 3.10732V1.71899H799.989V3.10732H800Z" fill="black"/>
</g>
<defs>
<clipPath id="clip0_204_35">
<rect width="800" height="74" fill="white"/>
</clipPath>
</defs>
</svg>
