<svg xmlns="http://www.w3.org/2000/svg" width="72" height="72" viewBox="0 0 72 72" fill="none">
  <g clip-path="url(#clip0_9721_7536)">
    <path d="M35.905 71.905C31.1557 71.905 26.5013 70.9551 22.3219 69.2454H22.0369C22.0369 69.3404 21.942 69.0554 21.942 69.0554C13.2982 65.4459 6.36412 58.5119 2.75462 49.8681H2.46966C2.46966 49.7731 2.56464 49.4881 2.56464 49.4881C0.949868 45.3087 0 40.7493 0 35.905C0 31.0607 0.949868 26.5013 2.65963 22.3219V22.0369C2.56464 22.0369 2.8496 21.942 2.8496 21.942C6.4591 13.3931 13.3931 6.4591 22.0369 2.8496V2.56464C22.1319 2.56464 22.4169 2.65963 22.4169 2.65963C26.5963 0.949868 31.1557 0 36 0C40.8443 0 45.4037 0.949868 49.5831 2.65963H49.8681C49.8681 2.56464 49.9631 2.8496 49.9631 2.8496C58.6069 6.4591 65.5409 13.3931 69.1504 22.0369H69.4353C69.4353 22.1319 69.3404 22.4169 69.3404 22.4169C71.0501 26.5963 72 31.1557 72 36V36.4749C72 41.1293 70.9551 45.4987 69.3404 49.5831V49.8681C69.4354 49.8681 69.1504 49.9631 69.1504 49.9631C65.5409 58.6069 58.6069 65.4459 49.9631 69.1504V69.4353C49.8681 69.4353 49.5831 69.3404 49.5831 69.3404C45.4037 71.0501 40.8443 72 36 72L35.905 71.905ZM23.6517 68.6755C27.3562 70.1003 31.3456 70.8602 35.5251 70.9551V63.5462L23.6517 68.6755ZM36.3799 63.5462V70.9551C40.5594 70.9551 44.5488 70.1003 48.2533 68.6755L36.3799 63.5462ZM17.6675 55.3773L22.7018 68.0106L35.1451 62.5963L27.9261 55.3773H17.6675ZM36.7599 62.6913L49.2032 68.1055L54.2375 55.4723H43.9789L36.7599 62.6913ZM11.5884 60.9815C14.438 63.8311 17.8575 66.1108 21.562 67.8206L16.8127 55.7573L11.5884 60.9815ZM55.0923 55.7573L50.343 67.8206C54.0475 66.1108 57.467 63.8311 60.3166 60.9815L55.0923 55.7573ZM29.2559 55.3773L36 62.1214L42.7441 55.3773H29.2559ZM4.08443 50.343C5.7942 54.0475 8.07388 57.467 10.9235 60.3166L16.1478 55.0923L4.08443 50.343ZM55.8522 55.0923L61.0765 60.3166C63.8311 57.467 66.2058 54.0475 67.8206 50.343L55.8522 55.0923ZM44.9288 54.4274H54.4274V44.9288L44.9288 54.4274ZM28.3061 54.4274H43.6939L54.5224 43.5989V28.2111L43.6939 17.3826H28.3061L17.4776 28.2111V43.5989L28.3061 54.4274ZM17.3826 54.4274H26.8813L17.3826 44.9288V54.4274ZM55.3773 43.9789V54.2375L68.0106 49.2032L62.5963 36.7599L55.3773 43.9789ZM3.79947 49.2982L16.4327 54.3325V44.0739L9.21372 36.8549L3.79947 49.2982ZM0.949868 36.3799C0.949868 40.5594 1.80475 44.5488 3.22955 48.2533L8.35884 36.3799H0.949868ZM63.5462 36.3799L68.6755 48.2533C70.1003 44.5488 70.8602 40.5594 70.9551 36.3799H63.5462ZM9.78364 35.905L16.5277 42.6491V29.1609L9.78364 35.905ZM55.3773 29.2559V42.7441L62.1214 36L55.3773 29.2559ZM0.949868 35.4301H8.35884L3.22955 23.5567C1.80475 27.2612 1.04485 31.2507 0.949868 35.4301ZM63.5462 35.4301H70.9551C70.9551 31.2507 70.1003 27.2612 68.6755 23.6517L63.5462 35.4301ZM55.3773 27.8311L62.5963 35.0501L68.0106 22.6069L55.3773 17.5726V27.8311ZM3.79947 22.6069L9.21372 35.0501L16.4327 27.8311V17.5726L3.79947 22.6069ZM44.9288 17.3826L54.4274 26.8813V17.3826H44.9288ZM17.3826 17.3826V26.8813L26.8813 17.3826H17.3826ZM10.8285 11.5884C7.97889 14.438 5.69921 17.8575 3.98945 21.562L16.0528 16.8127L10.8285 11.5884ZM55.7573 16.7177L67.8206 21.467C66.1108 17.7625 63.8311 14.343 60.9815 11.4934L55.7573 16.7177ZM43.9789 16.4327H54.2375L49.2032 3.79947L36.7599 9.21372L43.9789 16.4327ZM29.2559 16.4327H42.7441L36 9.68865L29.2559 16.4327ZM17.6675 16.4327H27.9261L35.1451 9.21372L22.7018 3.79947L17.6675 16.4327ZM11.5884 10.8285L16.8127 16.0528L21.562 3.98945C17.8575 5.69921 14.533 7.97889 11.5884 10.8285ZM50.343 4.08443L55.0923 16.0528L60.3166 10.8285C57.467 8.07388 54.0475 5.69921 50.343 4.08443ZM36.3799 0.949868V8.35884L48.2533 3.22955C44.5488 1.80475 40.5594 1.04485 36.3799 0.949868ZM23.6517 3.22955L35.5251 8.35884V0.949868C31.3456 0.949868 27.3562 1.80475 23.6517 3.22955Z" fill="#D9D9D9"/>
  </g>
  <defs>
    <clipPath id="clip0_9721_7536">
      <rect width="72" height="72" fill="white"/>
    </clipPath>
  </defs>
</svg>
