<svg xmlns="http://www.w3.org/2000/svg" width="72" height="72" viewBox="0 0 72 72" fill="none">
  <g clip-path="url(#clip0_9721_7534)">
    <path d="M36 72C16.1905 72 0 55.8309 0 35.9524C0 16.074 16.1905 0 36 0C55.8095 0 72 16.1691 72 35.9524C72 55.7358 55.8095 71.9049 36 71.9049V72ZM39.619 45.8441L36.5714 71.0489C40.9524 71.0489 45.1429 70.0978 49.0476 68.576L39.619 45.8441ZM23.0476 68.576C26.9524 70.0978 31.1429 70.9538 35.5238 71.0489L32.4762 45.8441L23.0476 68.576ZM11.619 61.1572C14.6667 64.1057 18.1905 66.4835 22.1905 68.1955L31.619 45.5588L11.7143 61.1572H11.619ZM40.4762 45.5588L49.9048 68.1955C53.8095 66.4835 57.4286 64.1057 60.4762 61.1572L40.5714 45.5588H40.4762ZM33.2381 44.037L36.0952 67.6248L38.9524 44.037L36.0952 37.284L33.2381 44.037ZM45.5238 40.4227L61.2381 60.3963C64.1905 57.3527 66.5714 53.8336 68.2857 49.8388L45.5238 40.4227ZM3.80952 49.8388C5.52381 53.7384 7.90476 57.3527 10.8571 60.3963L26.381 40.5178L3.80952 49.8388ZM28.1905 39.7569L13.619 58.3989L32.2857 43.8468L35.1429 36.9987L28.1905 39.8521V39.7569ZM39.8095 43.7517L58.381 58.3038L43.7143 39.6618L36.9524 36.8085L39.8095 43.6565V43.7517ZM45.9048 39.5667L68.6667 48.9828C70.1905 45.0832 71.0476 40.8983 71.1429 36.5231L45.9048 39.5667ZM0.952381 36.5231C0.952381 40.8983 1.90476 45.0832 3.42857 48.9828L26.1905 39.5667L0.952381 36.5231ZM37.2381 35.9524L44 38.7107L67.5238 35.9524L44 33.1942L37.2381 35.9524ZM4.57143 35.9524L28.0952 38.7107L34.8571 35.9524L28.1905 33.1942L4.66667 35.9524H4.57143ZM3.42857 23.0172C1.90476 26.9168 1.04762 31.1017 0.952381 35.4769L26.2857 32.5284L3.42857 23.0172ZM45.9048 32.4333L71.1429 35.4769C71.1429 31.1017 70.1905 26.9168 68.6667 23.0172L45.9048 32.4333ZM28.2857 32.2431L35.2381 35.0964L32.4762 28.3435L13.7143 13.7913L28.2857 32.3382V32.2431ZM39.8095 28.2484L36.9524 35.0964L43.7143 32.2431L58.381 13.6011L39.8095 28.1532V28.2484ZM33.2381 27.963L36.0952 34.716L38.8571 27.963L36.0952 4.47028L33.2381 27.963ZM61.2381 11.6037L45.5238 31.5773L68.2857 22.1612C66.5714 18.2616 64.1905 14.6473 61.2381 11.6037ZM3.80952 22.1612L26.4762 31.4822L10.8571 11.6037C7.90476 14.6473 5.52381 18.1664 3.80952 22.0661V22.1612ZM11.619 10.8428L31.619 26.5363L22.1905 3.80449C18.1905 5.51651 14.6667 7.89432 11.619 10.8428ZM49.9048 3.80449L40.4762 26.4412L60.381 10.8428C57.3333 7.89432 53.8095 5.51651 49.8095 3.80449H49.9048ZM36.5714 0.951123L39.5238 26.251L49.0476 3.42404C45.1429 1.90225 40.9524 1.04624 36.5714 0.951123ZM23.0476 3.42404L32.4762 26.1559L35.5238 0.951123C31.1429 0.951123 26.9524 1.90225 23.0476 3.42404Z" fill="#D9D9D9"/>
  </g>
  <defs>
    <clipPath id="clip0_9721_7534">
      <rect width="72" height="72" fill="white"/>
    </clipPath>
  </defs>
</svg>
